<svg width="94" height="91" viewBox="0 0 94 91" fill="none" xmlns="http://www.w3.org/2000/svg">
<circle cx="10.5" cy="10.5" r="10.5" fill="#5E5E5E"/>
<circle cx="10.5" cy="10.5" r="8.5" fill="#A9A9A9"/>
<circle cx="10.5" cy="10.5" r="7.5" fill="#D9D9D9"/>
<circle cx="83.5" cy="80.5" r="10.5" fill="#5E5E5E"/>
<circle cx="83.5" cy="80.5" r="8.5" fill="#A9A9A9"/>
<circle cx="83.5" cy="80.5" r="7.5" fill="#D9D9D9"/>
<circle cx="10.5" cy="10.5" r="10.5" transform="matrix(-1 0 0 1 94 0)" fill="#5E5E5E"/>
<circle cx="8.5" cy="8.5" r="8.5" transform="matrix(-1 0 0 1 92 2)" fill="#A9A9A9"/>
<circle cx="7.5" cy="7.5" r="7.5" transform="matrix(-1 0 0 1 91 3)" fill="#D9D9D9"/>
<circle cx="10.5" cy="10.5" r="10.5" transform="matrix(-1 0 0 1 21 70)" fill="#5E5E5E"/>
<circle cx="8.5" cy="8.5" r="8.5" transform="matrix(-1 0 0 1 19 72)" fill="#A9A9A9"/>
<circle cx="7.5" cy="7.5" r="7.5" transform="matrix(-1 0 0 1 18 73)" fill="#D9D9D9"/>
</svg>
