<svg width="49" height="76" viewBox="0 0 49 76" fill="none" xmlns="http://www.w3.org/2000/svg">
<path d="M25.1963 26.8125C25.8471 27.0607 26.7827 27.4406 27.9072 27.9629C30.1589 29.0088 33.1562 30.6191 36.1474 32.8779C42.1374 37.4014 48 44.4364 48 54.6846C47.9999 65.2246 45.2976 70.1049 41.3096 72.4961C39.2652 73.7218 36.7848 74.3584 33.9248 74.6797C31.0602 75.0014 27.8975 75 24.5 75C21.1025 75 17.9397 75.0014 15.0752 74.6797C12.2151 74.3584 9.73481 73.7218 7.69041 72.4961C3.70234 70.1049 1.00005 65.2246 0.999985 54.6846C0.999985 44.4364 6.8626 37.4014 12.8525 32.8779C15.8437 30.6191 18.841 29.0088 21.0928 27.9629C22.2173 27.4406 23.1529 27.0607 23.8037 26.8125C24.0964 26.7009 24.3314 26.6159 24.5 26.5566C24.6685 26.6159 24.9036 26.7009 25.1963 26.8125Z" fill="#D9D9D9" stroke="#939393" stroke-width="2"/>
<path d="M39 71.3116C39 73.0039 32.5081 73 24.5 73C16.4919 73 9.99998 73.0039 9.99998 71.3116C9.99998 69.6194 24.5 69 24.5 69C24.5 69 39 69.6194 39 71.3116Z" fill="#939393"/>
<path d="M7.56965 49.0509C5.23161 54.9504 6.93185 58.4791 5.64826 57.9704C4.36468 57.4617 2.83678 51.4935 5.17482 45.594C7.51286 39.6944 19.308 27.921 16.5 36C13.692 44.079 9.90769 43.1513 7.56965 49.0509Z" fill="#EEEEEE"/>
<path d="M25 1C28.9615 1 32.4221 2.10859 34.8955 4.6123C37.3683 7.11573 38.9999 11.1614 39 17.3369C39 23.5288 37.3684 26.2458 35.1035 27.5635C33.9166 28.254 32.4567 28.6244 30.7305 28.8125C29.0005 29.001 27.0854 29 25 29C22.9146 29 20.9995 29.001 19.2695 28.8125C17.5433 28.6244 16.0834 28.254 14.8965 27.5635C12.6316 26.2458 11 23.5288 11 17.3369C11 11.1614 12.6317 7.11573 15.1045 4.6123C17.5778 2.10859 21.0385 1 25 1Z" fill="#D9D9D9" stroke="#939393" stroke-width="2"/>
<path d="M18.5 6.5C16.5 7.89259 16 11.5501 15 11.0501C14 10.5501 15.4057 7.48573 16.4529 6.01789C17.5 4.55006 23.5 1.73606 23.5 4.05006C23.5 6.36406 20.5 5.10741 18.5 6.5Z" fill="#EEEEEE"/>
<ellipse cx="18.5" cy="17" rx="1.5" ry="4" fill="black"/>
<ellipse cx="30.5" cy="17" rx="1.5" ry="4" fill="black"/>
</svg>
