<svg width="50" height="48" viewBox="0 0 50 48" fill="none" xmlns="http://www.w3.org/2000/svg">
<path d="M41 23C41 23 41 30.5 38.5 35.5C36 40.5 24 43.5 24 43.5" stroke="black"/>
<path d="M24 43.5C24 43.5 13.5 41 11 35.5C8.5 30 9.56374 18.2443 9.56374 18.2443" stroke="black"/>
<path d="M25.5001 43.5C25.5001 43.7761 25.1046 44.5 24.0001 44.5C22.8955 44.5 22.5001 43.7761 22.5001 43.5C22.5001 43.2239 22.8955 43 24.0001 43C25.1046 43 25.5001 43.2239 25.5001 43.5Z" fill="black"/>
<path d="M25.5001 44.5C25.5001 44.7761 25.1046 45.5 24.0001 45.5C22.8955 45.5 22.5001 44.7761 22.5001 44.5C22.5001 44.2239 22.8955 44 24.0001 44C25.1046 44 25.5001 44.2239 25.5001 44.5Z" fill="black"/>
<path d="M24 43.5L23.5 46.5" stroke="black" stroke-linecap="round"/>
<path d="M24.0001 43.573L24.5 46" stroke="black" stroke-linecap="round"/>
<path d="M40.1377 24.1017C39.6236 27.4557 26.453 25.5446 24.0672 25.2588C21.6814 24.973 10.1527 23.2656 10.6668 19.9116C11.1809 16.5576 11.5929 19.6485 24.6308 21.6469C37.6686 23.6453 40.6518 20.7477 40.1377 24.1017Z" fill="#10002B" fill-opacity="0.54"/>
<path d="M48.5516 23.4016C47.9987 27.0083 37.4307 25.38 24.3929 23.3816C11.3551 21.3832 0.784547 19.7714 1.33737 16.1647C1.89019 12.558 12.6618 12.858 25.6996 14.8564C38.7375 16.8548 49.1044 19.7949 48.5516 23.4016Z" fill="#8C7B45"/>
<path d="M46.5955 22.8694C46.2316 25.2434 36.5545 23.7546 24.6162 21.9247C12.6779 20.0948 2.99918 18.6169 3.36306 16.2429C3.72693 13.8689 13.538 14.4834 25.4763 16.3133C37.4146 18.1431 46.9594 20.4954 46.5955 22.8694Z" fill="#E8CA68"/>
<path d="M41.7173 20.8104C41.7173 20.8104 32.2745 21.3341 23.5 20C14.7255 18.6659 9.94187 15.9793 9.94187 15.9793C11.6713 4.60467 19.4174 1.52302 28.1919 2.85709C36.9665 4.19117 43.4467 9.43577 41.7173 20.8104Z" fill="#8C7B45"/>
<path d="M40.0268 19.9784C40.0268 19.9784 31.2937 22.1849 23.5 21C15.7063 19.8151 11.8033 15.6874 11.8033 15.6874C13.2478 6.18633 20.0946 3.66952 27.8883 4.85447C35.682 6.03941 41.4713 10.4774 40.0268 19.9784Z" fill="#E8CA68"/>
</svg>
