<svg width="592" height="475" viewBox="0 0 592 475" fill="none" xmlns="http://www.w3.org/2000/svg">
<ellipse cx="399" cy="215" rx="170" ry="63" fill="#275721"/>
<ellipse cx="227.5" cy="192.5" rx="171.5" ry="63.5" fill="#275721"/>
<ellipse cx="105" cy="140.5" rx="94" ry="63.5" fill="#275721"/>
<ellipse cx="188.5" cy="92" rx="94.5" ry="64" fill="#275721"/>
<ellipse cx="362.5" cy="133.5" rx="171.5" ry="64.5" fill="#275721"/>
<ellipse cx="336.5" cy="63.5" rx="93.5" ry="63.5" fill="#275721"/>
<ellipse cx="498.5" cy="169" rx="93.5" ry="63" fill="#275721"/>
<ellipse cx="290.5" cy="435.5" rx="188.5" ry="31.5" fill="#46AE38"/>
<ellipse cx="188.5" cy="411.5" rx="188.5" ry="31.5" fill="#46AE38"/>
<ellipse cx="378" cy="416" rx="159" ry="59" fill="#46AE38"/>
<path d="M479 422C492.5 449.5 473.5 484 290.5 453.5C107.5 423 142 453.5 102 422C62 390.5 189.394 375 293.5 375C397.606 375 465.5 394.5 479 422Z" fill="#428F38"/>
<rect x="178" y="207" width="36" height="214" fill="#795015"/>
<rect x="308" y="190" width="36" height="214" fill="#795015"/>
<rect x="414" y="222" width="36" height="214" fill="#795015"/>
<path d="M325.5 345L364.904 413.25H286.096L325.5 345Z" fill="#795015"/>
<path d="M431.5 408L470.904 450.75H392.096L431.5 408Z" fill="#795015"/>
<path d="M195.5 323L242.698 424.25H148.302L195.5 323Z" fill="#795015"/>
<ellipse cx="405" cy="211" rx="159" ry="59" fill="#3E9E31"/>
<ellipse cx="222" cy="190" rx="159" ry="59" fill="#3E9E31"/>
<ellipse cx="109" cy="141" rx="87" ry="59" fill="#46AE38"/>
<ellipse cx="189" cy="92" rx="87" ry="59" fill="#3FA631"/>
<ellipse cx="361" cy="136" rx="157" ry="59" fill="#3FA631"/>
<ellipse cx="337" cy="68" rx="87" ry="59" fill="#46AE38"/>
<ellipse cx="492" cy="169" rx="87" ry="59" fill="#46AE38"/>
</svg>
