<svg width="111" height="43" viewBox="0 0 111 43" fill="none" xmlns="http://www.w3.org/2000/svg">
<path d="M0.671781 0.647999H2.99978V15.768H11.8078V18H0.671781V0.647999ZM19.1775 18.24C18.2495 18.24 17.4015 18.04 16.6335 17.64C15.8815 17.24 15.2815 16.656 14.8335 15.888C14.4015 15.104 14.1855 14.152 14.1855 13.032C14.1855 11.928 14.4175 10.976 14.8815 10.176C15.3455 9.36 15.9615 8.736 16.7295 8.304C17.5135 7.872 18.3695 7.656 19.2975 7.656C20.2255 7.656 21.0095 7.872 21.6495 8.304C22.2895 8.72 22.7775 9.216 23.1135 9.792L22.9695 10.176L23.1855 8.064H25.2495V18H23.0175V15.408L23.2575 15.984C23.1935 16.144 23.0495 16.352 22.8255 16.608C22.6175 16.848 22.3295 17.096 21.9615 17.352C21.6095 17.608 21.2015 17.824 20.7375 18C20.2735 18.16 19.7535 18.24 19.1775 18.24ZM19.7775 16.392C20.3375 16.392 20.8415 16.288 21.2895 16.08C21.7375 15.872 22.1055 15.584 22.3935 15.216C22.6975 14.832 22.9055 14.376 23.0175 13.848V11.904C22.8895 11.424 22.6655 11.008 22.3455 10.656C22.0255 10.288 21.6415 10.008 21.1935 9.816C20.7455 9.608 20.2495 9.504 19.7055 9.504C19.1135 9.504 18.5695 9.648 18.0735 9.936C17.5775 10.224 17.1775 10.624 16.8735 11.136C16.5855 11.648 16.4415 12.248 16.4415 12.936C16.4415 13.576 16.5935 14.16 16.8975 14.688C17.2015 15.216 17.6095 15.632 18.1215 15.936C18.6335 16.24 19.1855 16.392 19.7775 16.392ZM33.888 22.92C33.152 22.92 32.504 22.832 31.944 22.656C31.384 22.496 30.872 22.264 30.408 21.96C29.96 21.656 29.528 21.312 29.112 20.928L30.408 19.416C30.936 19.912 31.472 20.296 32.016 20.568C32.56 20.84 33.168 20.976 33.84 20.976C34.592 20.976 35.224 20.848 35.736 20.592C36.264 20.352 36.664 20.008 36.936 19.56C37.208 19.128 37.344 18.624 37.344 18.048L37.368 15.36L37.56 15.792C37.272 16.48 36.752 17.064 36 17.544C35.248 18.008 34.336 18.24 33.264 18.24C32.352 18.24 31.512 18.008 30.744 17.544C29.992 17.08 29.384 16.456 28.92 15.672C28.472 14.872 28.248 13.976 28.248 12.984C28.248 11.944 28.488 11.032 28.968 10.248C29.448 9.448 30.08 8.816 30.864 8.352C31.648 7.888 32.504 7.656 33.432 7.656C34.312 7.656 35.112 7.84 35.832 8.208C36.568 8.56 37.104 9.016 37.44 9.576L37.32 9.984L37.56 8.064H39.6V18.072C39.6 18.968 39.368 19.784 38.904 20.52C38.44 21.256 37.784 21.84 36.936 22.272C36.088 22.704 35.072 22.92 33.888 22.92ZM30.48 12.936C30.48 13.576 30.632 14.16 30.936 14.688C31.24 15.216 31.648 15.632 32.16 15.936C32.688 16.24 33.272 16.392 33.912 16.392C34.504 16.392 35.032 16.288 35.496 16.08C35.976 15.856 36.376 15.56 36.696 15.192C37.016 14.808 37.24 14.368 37.368 13.872V11.904C37.224 11.424 36.984 11.008 36.648 10.656C36.312 10.288 35.912 10.008 35.448 9.816C34.984 9.608 34.472 9.504 33.912 9.504C33.272 9.504 32.688 9.648 32.16 9.936C31.648 10.224 31.24 10.632 30.936 11.16C30.632 11.672 30.48 12.264 30.48 12.936ZM47.5837 18.24C46.6557 18.24 45.8077 18.04 45.0397 17.64C44.2877 17.24 43.6877 16.656 43.2397 15.888C42.8077 15.104 42.5917 14.152 42.5917 13.032C42.5917 11.928 42.8237 10.976 43.2877 10.176C43.7517 9.36 44.3677 8.736 45.1357 8.304C45.9197 7.872 46.7757 7.656 47.7037 7.656C48.6317 7.656 49.4157 7.872 50.0557 8.304C50.6957 8.72 51.1837 9.216 51.5197 9.792L51.3757 10.176L51.5917 8.064H53.6557V18H51.4237V15.408L51.6637 15.984C51.5997 16.144 51.4557 16.352 51.2317 16.608C51.0237 16.848 50.7357 17.096 50.3677 17.352C50.0157 17.608 49.6077 17.824 49.1437 18C48.6797 18.16 48.1597 18.24 47.5837 18.24ZM48.1837 16.392C48.7437 16.392 49.2477 16.288 49.6957 16.08C50.1437 15.872 50.5117 15.584 50.7997 15.216C51.1037 14.832 51.3117 14.376 51.4237 13.848V11.904C51.2957 11.424 51.0717 11.008 50.7517 10.656C50.4317 10.288 50.0477 10.008 49.5997 9.816C49.1517 9.608 48.6557 9.504 48.1117 9.504C47.5197 9.504 46.9757 9.648 46.4797 9.936C45.9837 10.224 45.5837 10.624 45.2797 11.136C44.9917 11.648 44.8477 12.248 44.8477 12.936C44.8477 13.576 44.9997 14.16 45.3037 14.688C45.6077 15.216 46.0157 15.632 46.5277 15.936C47.0397 16.24 47.5917 16.392 48.1837 16.392ZM59.5102 8.064L59.7262 10.944L59.6062 10.56C59.8622 9.952 60.2302 9.44 60.7102 9.024C61.2062 8.592 61.7182 8.264 62.2462 8.04C62.7902 7.8 63.2622 7.68 63.6622 7.68L63.5422 9.888C62.7902 9.84 62.1262 9.984 61.5502 10.32C60.9902 10.656 60.5422 11.104 60.2062 11.664C59.8862 12.224 59.7262 12.824 59.7262 13.464V18H57.5182V8.064H59.5102ZM67.5017 3.696H69.7337V8.112H72.4697V9.864H69.7337V18H67.5017V9.864H65.6777V8.112H67.5017V3.696ZM75.1667 8.064H77.3987V18H75.1667V8.064ZM74.9987 4.464C74.9987 4.112 75.1347 3.816 75.4067 3.576C75.6947 3.336 76.0067 3.216 76.3427 3.216C76.6787 3.216 76.9747 3.336 77.2307 3.576C77.5027 3.816 77.6387 4.112 77.6387 4.464C77.6387 4.832 77.5027 5.136 77.2307 5.376C76.9747 5.6 76.6787 5.712 76.3427 5.712C76.0067 5.712 75.6947 5.592 75.4067 5.352C75.1347 5.112 74.9987 4.816 74.9987 4.464ZM85.0044 11.76L87.3804 8.064H89.6364L85.8204 13.392L85.0044 11.76ZM90.0204 18H87.3324L79.7724 8.064H82.5324L90.0204 18ZM84.7644 14.304L82.1484 18H79.8924L83.6844 12.816L84.7644 14.304ZM96.5447 18.24C95.6167 18.24 94.7687 18.04 94.0007 17.64C93.2487 17.24 92.6487 16.656 92.2007 15.888C91.7687 15.104 91.5527 14.152 91.5527 13.032C91.5527 11.928 91.7847 10.976 92.2487 10.176C92.7127 9.36 93.3287 8.736 94.0967 8.304C94.8807 7.872 95.7367 7.656 96.6647 7.656C97.5927 7.656 98.3767 7.872 99.0167 8.304C99.6567 8.72 100.145 9.216 100.481 9.792L100.337 10.176L100.553 8.064H102.617V18H100.385V15.408L100.625 15.984C100.561 16.144 100.417 16.352 100.193 16.608C99.9847 16.848 99.6967 17.096 99.3287 17.352C98.9767 17.608 98.5687 17.824 98.1047 18C97.6407 18.16 97.1207 18.24 96.5447 18.24ZM97.1447 16.392C97.7047 16.392 98.2087 16.288 98.6567 16.08C99.1047 15.872 99.4727 15.584 99.7607 15.216C100.065 14.832 100.273 14.376 100.385 13.848V11.904C100.257 11.424 100.033 11.008 99.7127 10.656C99.3927 10.288 99.0087 10.008 98.5607 9.816C98.1127 9.608 97.6167 9.504 97.0727 9.504C96.4807 9.504 95.9367 9.648 95.4407 9.936C94.9447 10.224 94.5447 10.624 94.2407 11.136C93.9527 11.648 93.8087 12.248 93.8087 12.936C93.8087 13.576 93.9607 14.16 94.2647 14.688C94.5687 15.216 94.9767 15.632 95.4887 15.936C96.0007 16.24 96.5527 16.392 97.1447 16.392ZM105.807 11.856H110.295V13.824H105.807V11.856ZM1.03506 42V24.648H5.76306C7.47506 24.648 8.93106 24.912 10.1311 25.44C11.3471 25.968 12.3231 26.664 13.0591 27.528C13.7951 28.392 14.3311 29.352 14.6671 30.408C15.0191 31.448 15.1951 32.488 15.1951 33.528C15.1951 34.84 14.9631 36.016 14.4991 37.056C14.0511 38.096 13.4271 38.984 12.6271 39.72C11.8271 40.456 10.9071 41.024 9.86706 41.424C8.84306 41.808 7.75506 42 6.60306 42H1.03506ZM3.36306 39.768H6.14706C7.10706 39.768 7.98706 39.624 8.78706 39.336C9.60306 39.048 10.3071 38.632 10.8991 38.088C11.5071 37.544 11.9791 36.88 12.3151 36.096C12.6511 35.296 12.8191 34.392 12.8191 33.384C12.8191 32.312 12.6431 31.376 12.2911 30.576C11.9391 29.76 11.4591 29.08 10.8511 28.536C10.2431 27.992 9.55506 27.584 8.78706 27.312C8.01906 27.024 7.21106 26.88 6.36306 26.88H3.36306V39.768ZM17.6894 36.936C17.6894 35.944 17.9214 35.048 18.3854 34.248C18.8654 33.448 19.5214 32.816 20.3534 32.352C21.1854 31.888 22.1294 31.656 23.1854 31.656C24.2734 31.656 25.2254 31.888 26.0414 32.352C26.8574 32.816 27.4894 33.448 27.9374 34.248C28.3854 35.048 28.6094 35.944 28.6094 36.936C28.6094 37.928 28.3854 38.832 27.9374 39.648C27.4894 40.448 26.8494 41.08 26.0174 41.544C25.2014 42.008 24.2494 42.24 23.1614 42.24C22.1054 42.24 21.1614 42.024 20.3294 41.592C19.5134 41.144 18.8654 40.528 18.3854 39.744C17.9214 38.944 17.6894 38.008 17.6894 36.936ZM19.9214 36.96C19.9214 37.6 20.0654 38.184 20.3534 38.712C20.6414 39.224 21.0254 39.632 21.5054 39.936C22.0014 40.24 22.5454 40.392 23.1374 40.392C23.7614 40.392 24.3134 40.24 24.7934 39.936C25.2894 39.632 25.6734 39.224 25.9454 38.712C26.2174 38.184 26.3534 37.6 26.3534 36.96C26.3534 36.32 26.2174 35.744 25.9454 35.232C25.6734 34.704 25.2894 34.288 24.7934 33.984C24.3134 33.664 23.7614 33.504 23.1374 33.504C22.5294 33.504 21.9774 33.664 21.4814 33.984C21.0014 34.304 20.6174 34.728 20.3294 35.256C20.0574 35.768 19.9214 36.336 19.9214 36.96ZM33.6235 32.064L33.8155 34.296L33.7195 34.104C34.0875 33.352 34.6075 32.76 35.2795 32.328C35.9675 31.896 36.7515 31.68 37.6315 31.68C38.1915 31.68 38.6875 31.768 39.1195 31.944C39.5515 32.12 39.9035 32.376 40.1755 32.712C40.4635 33.032 40.6475 33.432 40.7275 33.912L40.6075 33.984C40.9915 33.264 41.5195 32.704 42.1915 32.304C42.8795 31.888 43.5995 31.68 44.3515 31.68C45.3275 31.68 46.0955 31.96 46.6555 32.52C47.2315 33.064 47.5275 33.776 47.5435 34.656V42H45.3115V35.448C45.2955 34.936 45.1675 34.512 44.9275 34.176C44.7035 33.824 44.3035 33.632 43.7275 33.6C43.1515 33.6 42.6315 33.776 42.1675 34.128C41.7195 34.48 41.3675 34.936 41.1115 35.496C40.8555 36.04 40.7195 36.632 40.7035 37.272V42H38.4715V35.448C38.4555 34.936 38.3195 34.512 38.0635 34.176C37.8235 33.824 37.4155 33.632 36.8395 33.6C36.2475 33.6 35.7275 33.776 35.2795 34.128C34.8315 34.48 34.4795 34.936 34.2235 35.496C33.9835 36.056 33.8635 36.656 33.8635 37.296V42H31.6315V32.064H33.6235ZM56.0442 42.24C54.9082 42.24 53.9322 42.016 53.1162 41.568C52.3002 41.104 51.6682 40.48 51.2202 39.696C50.7882 38.896 50.5722 37.984 50.5722 36.96C50.5722 35.984 50.8202 35.096 51.3162 34.296C51.8122 33.496 52.4762 32.856 53.3082 32.376C54.1402 31.896 55.0682 31.656 56.0922 31.656C57.4042 31.656 58.4922 32.04 59.3562 32.808C60.2202 33.576 60.8042 34.632 61.1082 35.976L52.9242 38.856L52.3962 37.536L59.1162 35.088L58.6362 35.4C58.4442 34.872 58.1242 34.416 57.6762 34.032C57.2282 33.632 56.6442 33.432 55.9242 33.432C55.3162 33.432 54.7722 33.584 54.2922 33.888C53.8122 34.176 53.4362 34.576 53.1642 35.088C52.8922 35.6 52.7562 36.184 52.7562 36.84C52.7562 37.528 52.9002 38.136 53.1882 38.664C53.4762 39.176 53.8682 39.584 54.3642 39.888C54.8762 40.176 55.4522 40.32 56.0922 40.32C56.5242 40.32 56.9402 40.24 57.3402 40.08C57.7562 39.92 58.1402 39.712 58.4922 39.456L59.5242 41.112C59.0282 41.448 58.4682 41.72 57.8442 41.928C57.2362 42.136 56.6362 42.24 56.0442 42.24ZM58.6602 27L55.6122 30.216H54.1962L56.1882 27H58.6602ZM66.6889 42.192C65.9849 42.192 65.2969 42.072 64.6249 41.832C63.9689 41.576 63.4249 41.2 62.9929 40.704L63.9289 39.408C64.3449 39.808 64.7689 40.112 65.2009 40.32C65.6489 40.512 66.0889 40.608 66.5209 40.608C66.8409 40.608 67.1369 40.568 67.4089 40.488C67.6809 40.408 67.8969 40.28 68.0569 40.104C68.2329 39.912 68.3209 39.656 68.3209 39.336C68.3209 38.984 68.2009 38.704 67.9609 38.496C67.7369 38.288 67.4409 38.12 67.0729 37.992C66.7209 37.864 66.3449 37.744 65.9449 37.632C65.1289 37.36 64.5049 36.984 64.0729 36.504C63.6409 36.024 63.4249 35.44 63.4249 34.752C63.4249 34.224 63.5529 33.736 63.8089 33.288C64.0809 32.824 64.4729 32.448 64.9849 32.16C65.5129 31.872 66.1609 31.728 66.9289 31.728C67.6169 31.728 68.2329 31.816 68.7769 31.992C69.3209 32.152 69.8329 32.424 70.3129 32.808L69.4249 34.2C69.1369 33.896 68.7929 33.672 68.3929 33.528C67.9929 33.384 67.6329 33.304 67.3129 33.288C67.0409 33.272 66.7769 33.312 66.5209 33.408C66.2809 33.504 66.0809 33.64 65.9209 33.816C65.7609 33.992 65.6809 34.2 65.6809 34.44C65.6809 34.776 65.7929 35.048 66.0169 35.256C66.2409 35.464 66.5289 35.632 66.8809 35.76C67.2489 35.872 67.6089 35.992 67.9609 36.12C68.4569 36.264 68.8969 36.456 69.2809 36.696C69.6649 36.936 69.9689 37.232 70.1929 37.584C70.4329 37.936 70.5529 38.376 70.5529 38.904C70.5529 39.496 70.4089 40.048 70.1209 40.56C69.8489 41.056 69.4249 41.456 68.8489 41.76C68.2889 42.048 67.5689 42.192 66.6889 42.192ZM74.6384 27.696H76.8704V32.112H79.6064V33.864H76.8704V42H74.6384V33.864H72.8144V32.112H74.6384V27.696ZM82.3034 32.064H84.5354V42H82.3034V32.064ZM82.1354 28.464C82.1354 28.112 82.2714 27.816 82.5434 27.576C82.8314 27.336 83.1434 27.216 83.4794 27.216C83.8154 27.216 84.1114 27.336 84.3674 27.576C84.6394 27.816 84.7754 28.112 84.7754 28.464C84.7754 28.832 84.6394 29.136 84.3674 29.376C84.1114 29.6 83.8154 29.712 83.4794 29.712C83.1434 29.712 82.8314 29.592 82.5434 29.352C82.2714 29.112 82.1354 28.816 82.1354 28.464ZM96.4611 41.088C96.0131 41.44 95.4771 41.72 94.8531 41.928C94.2291 42.136 93.6051 42.24 92.9811 42.24C91.8931 42.24 90.9411 42.024 90.1251 41.592C89.3091 41.16 88.6691 40.56 88.2051 39.792C87.7571 39.008 87.5331 38.088 87.5331 37.032C87.5331 35.976 87.7731 35.056 88.2531 34.272C88.7491 33.488 89.3891 32.888 90.1731 32.472C90.9731 32.04 91.8291 31.824 92.7411 31.824C93.5411 31.824 94.2531 31.936 94.8771 32.16C95.5171 32.384 96.0611 32.688 96.5091 33.072L95.4051 34.512C95.1171 34.288 94.7651 34.088 94.3491 33.912C93.9331 33.736 93.4611 33.648 92.9331 33.648C92.3571 33.648 91.8211 33.8 91.3251 34.104C90.8451 34.392 90.4611 34.792 90.1731 35.304C89.9011 35.816 89.7651 36.392 89.7651 37.032C89.7651 37.64 89.9091 38.208 90.1971 38.736C90.4851 39.248 90.8851 39.656 91.3971 39.96C91.9091 40.248 92.4931 40.392 93.1491 40.392C93.5811 40.392 93.9731 40.328 94.3251 40.2C94.6931 40.072 95.0211 39.896 95.3091 39.672L96.4611 41.088ZM103.47 42.24C102.542 42.24 101.694 42.04 100.926 41.64C100.174 41.24 99.5744 40.656 99.1264 39.888C98.6944 39.104 98.4784 38.152 98.4784 37.032C98.4784 35.928 98.7104 34.976 99.1744 34.176C99.6384 33.36 100.254 32.736 101.022 32.304C101.806 31.872 102.662 31.656 103.59 31.656C104.518 31.656 105.302 31.872 105.942 32.304C106.582 32.72 107.07 33.216 107.406 33.792L107.262 34.176L107.478 32.064H109.542V42H107.31V39.408L107.55 39.984C107.486 40.144 107.342 40.352 107.118 40.608C106.91 40.848 106.622 41.096 106.254 41.352C105.902 41.608 105.494 41.824 105.03 42C104.566 42.16 104.046 42.24 103.47 42.24ZM104.07 40.392C104.63 40.392 105.134 40.288 105.582 40.08C106.03 39.872 106.398 39.584 106.686 39.216C106.99 38.832 107.198 38.376 107.31 37.848V35.904C107.182 35.424 106.958 35.008 106.638 34.656C106.318 34.288 105.934 34.008 105.486 33.816C105.038 33.608 104.542 33.504 103.998 33.504C103.406 33.504 102.862 33.648 102.366 33.936C101.87 34.224 101.47 34.624 101.166 35.136C100.878 35.648 100.734 36.248 100.734 36.936C100.734 37.576 100.886 38.16 101.19 38.688C101.494 39.216 101.902 39.632 102.414 39.936C102.926 40.24 103.478 40.392 104.07 40.392Z" fill="black"/>
</svg>
