<svg width="148" height="171" viewBox="0 0 148 171" fill="none" xmlns="http://www.w3.org/2000/svg">
<path d="M123.1 29.2319C113.215 23.5253 97.7977 14.6047 97.7977 14.6047C84.4693 6.89938 62.8526 6.88705 49.5154 14.5771C49.5154 14.5771 48.3787 15.2142 24.1969 29.1755C0.0252934 43.131 0.0252933 43.1417 0.0252976 56.7386L0.0252976 56.7557C0.0252976 70.3698 0.0151421 100.201 0.0151421 100.201C0.00636455 115.597 10.804 134.323 24.1325 142.029C24.1325 142.029 39.55 150.949 49.4343 156.656C73.3812 170.482 74.3298 170.05 97.4816 156.683C107.366 150.977 122.8 142.085 122.8 142.085C136.137 134.395 146.956 115.68 146.965 100.285C146.965 100.285 146.982 98.9771 146.982 71.0594C146.982 43.1417 146.982 43.0204 123.1 29.2319Z" fill="#B3B3B3"/>
<path d="M57.2051 10.1438C66.2957 4.90223 81.0295 4.91063 90.1141 10.1625L130.784 33.6743C139.869 38.9262 139.864 47.4328 130.773 52.6743L90.0765 76.1398C80.9859 81.3813 66.2521 81.3729 57.1675 76.121L16.4974 52.6092C7.41284 47.3573 7.41769 38.8507 16.5082 33.6092L57.2051 10.1438Z" fill="white"/>
<path d="M68.7097 16.5127C72.2981 14.4437 78.1141 14.447 81.7001 16.5201C85.2861 18.5932 85.2842 21.9511 81.6958 24.0201C78.1074 26.0891 72.2914 26.0858 68.7054 24.0127C65.1194 21.9396 65.1213 18.5817 68.7097 16.5127Z" fill="#5E5E5E"/>
<path d="M96.9812 33.6203C100.57 31.5512 106.386 31.5546 109.972 33.6277C113.558 35.7008 113.556 39.0586 109.967 41.1277C106.379 43.1967 100.563 43.1934 96.9769 41.1203C93.3909 39.0471 93.3928 35.6893 96.9812 33.6203Z" fill="#5E5E5E"/>
<path d="M50.4578 27.5451C54.0461 25.4761 59.8621 25.4794 63.4481 27.5525C67.0341 29.6256 67.0322 32.9835 63.4439 35.0525C59.8555 37.1216 54.0395 37.1182 50.4535 35.0451C46.8675 32.972 46.8694 29.6141 50.4578 27.5451Z" fill="#5E5E5E"/>
<path d="M78.7292 44.6527C82.3176 42.5836 88.1336 42.587 91.7196 44.6601C95.3056 46.7332 95.3037 50.0911 91.7153 52.1601C88.127 54.2291 82.311 54.2258 78.725 52.1527C75.1389 50.0796 75.1409 46.7217 78.7292 44.6527Z" fill="#5E5E5E"/>
<path d="M31.7234 37.7265C35.3118 35.6574 41.1277 35.6608 44.7138 37.7339C48.2998 39.807 48.2979 43.1648 44.7095 45.2339C41.1211 47.3029 35.3051 47.2996 31.7191 45.2265C28.1331 43.1533 28.135 39.7955 31.7234 37.7265Z" fill="#5E5E5E"/>
<path d="M59.9958 54.8342C63.5842 52.7652 69.4002 52.7685 72.9862 54.8416C76.5722 56.9147 76.5703 60.2726 72.9819 62.3416C69.3936 64.4106 63.5776 64.4073 59.9916 62.3342C56.4055 60.2611 56.4075 56.9032 59.9958 54.8342Z" fill="#5E5E5E"/>
<path d="M73.371 104.63C73.377 94.137 80.7512 81.3813 89.8417 76.1398L130.539 52.6744C139.629 47.4328 146.994 51.6903 146.988 62.1838L146.961 109.161C146.955 119.654 139.581 132.41 130.49 137.652L89.7933 161.117C80.7027 166.359 73.3382 162.101 73.3442 151.608L73.371 104.63Z" fill="#D9D9D9"/>
<path d="M116.461 88.102C116.431 83.96 119.304 78.9028 122.876 76.8064C126.449 74.71 129.368 76.3683 129.398 80.5103C129.427 84.6524 126.555 89.7096 122.982 91.806C119.41 93.9024 116.49 92.2441 116.461 88.102Z" fill="#464646"/>
<path d="M94.7733 136.555C94.744 132.413 97.6163 127.355 101.189 125.259C104.761 123.163 107.681 124.821 107.71 128.963C107.74 133.105 104.867 138.162 101.295 140.259C97.7224 142.355 94.8026 140.697 94.7733 136.555Z" fill="#464646"/>
<path d="M0.0375072 62.0998C0.0434899 51.6064 7.41283 47.3573 16.4974 52.6092L57.1675 76.121C66.2521 81.3729 73.6117 94.137 73.6058 104.63L73.579 151.608C73.573 162.101 66.2036 166.35 57.1191 161.098L16.449 137.586C7.36438 132.335 0.00474093 119.57 0.0107236 109.077L0.0375072 62.0998Z" fill="#EFEFEF"/>
<path d="M39.135 94.2721C39.1365 90.13 42.0451 88.4521 45.6315 90.5244C49.218 92.5968 52.1241 97.6347 52.1226 101.777C52.1211 105.919 49.2125 107.597 45.6261 105.524C42.0396 103.452 39.1335 98.4142 39.135 94.2721Z" fill="#5C5C5C"/>
<path d="M38.9455 128.448C38.947 124.305 41.8556 122.628 45.4421 124.7C49.0285 126.772 51.9347 131.81 51.9332 135.952C51.9317 140.094 49.0231 141.772 45.4366 139.7C41.8502 137.628 38.944 132.59 38.9455 128.448Z" fill="#5C5C5C"/>
<path d="M11.7292 76.3295C11.7307 72.1874 14.6393 70.5095 18.2258 72.5819C21.8122 74.6543 24.7184 79.6921 24.7169 83.8342C24.7154 87.9764 21.8068 89.6542 18.2203 87.5819C14.6339 85.5095 11.7277 80.4717 11.7292 76.3295Z" fill="#5C5C5C"/>
<path d="M11.5398 110.505C11.5413 106.363 14.4499 104.685 18.0363 106.757C21.6228 108.83 24.5289 113.868 24.5274 118.01C24.5259 122.152 21.6173 123.83 18.0309 121.757C14.4444 119.685 11.5383 114.647 11.5398 110.505Z" fill="#5C5C5C"/>
<path d="M80.983 18.2527C83.6127 19.773 83.6113 22.2354 80.9798 23.7527C78.3484 25.27 74.0833 25.2676 71.4536 23.7473C68.8238 22.227 68.8252 19.7646 71.4567 18.2473C74.0882 16.73 78.3532 16.7324 80.983 18.2527Z" fill="#989595" stroke="#727272"/>
<path d="M109.254 35.3603C111.884 36.8805 111.883 39.343 109.251 40.8603C106.62 42.3775 102.355 42.3751 99.725 40.8548C97.0953 39.3345 97.0967 36.8721 99.7282 35.3548C102.36 33.8375 106.625 33.84 109.254 35.3603Z" fill="#989595" stroke="#727272"/>
<path d="M62.731 29.2851C65.3608 30.8054 65.3594 33.2678 62.7279 34.7851C60.0964 36.3024 55.8313 36.3 53.2016 34.7797C50.5719 33.2594 50.5733 30.797 53.2047 29.2797C55.8362 27.7624 60.1013 27.7648 62.731 29.2851Z" fill="#989595" stroke="#727272"/>
<path d="M91.0025 46.3927C93.6322 47.913 93.6308 50.3754 90.9994 51.8927C88.3679 53.41 84.1028 53.4075 81.4731 51.8872C78.8433 50.367 78.8447 47.9045 81.4762 46.3872C84.1077 44.87 88.3728 44.8724 91.0025 46.3927Z" fill="#989595" stroke="#727272"/>
<path d="M43.9966 39.4665C46.6264 40.9867 46.625 43.4492 43.9935 44.9665C41.362 46.4837 37.097 46.4813 34.4672 44.961C31.8375 43.4407 31.8389 40.9783 34.4704 39.461C37.1018 37.9437 41.3669 37.9462 43.9966 39.4665Z" fill="#989595" stroke="#727272"/>
<path d="M72.2691 56.5742C74.8988 58.0945 74.8974 60.5569 72.266 62.0742C69.6345 63.5915 65.3694 63.589 62.7397 62.0688C60.1099 60.5485 60.1113 58.086 62.7428 56.5688C65.3743 55.0515 69.6394 55.0539 72.2691 56.5742Z" fill="#989595" stroke="#727272"/>
<path d="M122.419 78.5366C125.039 76.9992 127.18 78.2153 127.202 81.2528C127.223 84.2903 125.117 87.999 122.497 89.5363C119.877 91.0737 117.736 89.8576 117.714 86.8201C117.693 83.7826 119.799 80.074 122.419 78.5366Z" fill="#727272" stroke="#656565"/>
<path d="M100.732 126.989C103.351 125.452 105.493 126.668 105.514 129.705C105.536 132.743 103.429 136.452 100.809 137.989C98.1896 139.526 96.0484 138.31 96.0269 135.273C96.0054 132.235 98.1118 128.527 100.732 126.989Z" fill="#727272" stroke="#656565"/>
<path d="M46.3477 92.4444C48.9778 93.9642 51.109 97.6586 51.1079 100.696C51.1068 103.734 48.9738 104.964 46.3437 103.444C43.7137 101.925 41.5825 98.2303 41.5836 95.1927C41.5847 92.1552 43.7177 90.9247 46.3477 92.4444Z" fill="#848484" stroke="#727272"/>
<path d="M46.1583 126.62C48.7883 128.14 50.9195 131.834 50.9184 134.872C50.9173 137.909 48.7843 139.14 46.1543 137.62C43.5242 136.1 41.393 132.406 41.3941 129.368C41.3952 126.331 43.5282 125.1 46.1583 126.62Z" fill="#848484" stroke="#727272"/>
<path d="M18.942 74.5019C21.572 76.0216 23.7032 79.716 23.7021 82.7536C23.701 85.7912 21.568 87.0216 18.938 85.5019C16.3079 83.9821 14.1767 80.2877 14.1778 77.2502C14.1789 74.2126 16.3119 72.9821 18.942 74.5019Z" fill="#848484" stroke="#727272"/>
<path d="M18.7525 108.677C21.3826 110.197 23.5138 113.892 23.5126 116.929C23.5115 119.967 21.3786 121.197 18.7485 119.677C16.1185 118.158 13.9873 114.463 13.9884 111.426C13.9895 108.388 16.1224 107.158 18.7525 108.677Z" fill="#848484" stroke="#727272"/>
</svg>
