<svg width="696" height="900" viewBox="0 0 696 900" fill="none" xmlns="http://www.w3.org/2000/svg">
<rect x="1.5" y="1.5" width="692.433" height="896.306" rx="9.5" fill="#B7872F" stroke="#5D1C0F" stroke-width="3"/>
<path d="M163.851 462.08H167.731V487.28H182.411V491H163.851V462.08ZM194.694 491.4C193.148 491.4 191.734 491.067 190.454 490.4C189.201 489.733 188.201 488.76 187.454 487.48C186.734 486.173 186.374 484.587 186.374 482.72C186.374 480.88 186.761 479.293 187.534 477.96C188.308 476.6 189.334 475.56 190.614 474.84C191.921 474.12 193.348 473.76 194.894 473.76C196.441 473.76 197.748 474.12 198.814 474.84C199.881 475.533 200.694 476.36 201.254 477.32L201.014 477.96L201.374 474.44H204.814V491H201.094V486.68L201.494 487.64C201.388 487.907 201.148 488.253 200.774 488.68C200.428 489.08 199.948 489.493 199.334 489.92C198.748 490.347 198.068 490.707 197.294 491C196.521 491.267 195.654 491.4 194.694 491.4ZM195.694 488.32C196.628 488.32 197.468 488.147 198.214 487.8C198.961 487.453 199.574 486.973 200.054 486.36C200.561 485.72 200.908 484.96 201.094 484.08V480.84C200.881 480.04 200.508 479.347 199.974 478.76C199.441 478.147 198.801 477.68 198.054 477.36C197.308 477.013 196.481 476.84 195.574 476.84C194.588 476.84 193.681 477.08 192.854 477.56C192.028 478.04 191.361 478.707 190.854 479.56C190.374 480.413 190.134 481.413 190.134 482.56C190.134 483.627 190.388 484.6 190.894 485.48C191.401 486.36 192.081 487.053 192.934 487.56C193.788 488.067 194.708 488.32 195.694 488.32ZM219.212 499.2C217.985 499.2 216.905 499.053 215.972 498.76C215.038 498.493 214.185 498.107 213.412 497.6C212.665 497.093 211.945 496.52 211.252 495.88L213.412 493.36C214.292 494.187 215.185 494.827 216.092 495.28C216.998 495.733 218.012 495.96 219.132 495.96C220.385 495.96 221.438 495.747 222.292 495.32C223.172 494.92 223.838 494.347 224.292 493.6C224.745 492.88 224.972 492.04 224.972 491.08L225.012 486.6L225.332 487.32C224.852 488.467 223.985 489.44 222.732 490.24C221.478 491.013 219.958 491.4 218.172 491.4C216.652 491.4 215.252 491.013 213.972 490.24C212.718 489.467 211.705 488.427 210.932 487.12C210.185 485.787 209.812 484.293 209.812 482.64C209.812 480.907 210.212 479.387 211.012 478.08C211.812 476.747 212.865 475.693 214.172 474.92C215.478 474.147 216.905 473.76 218.452 473.76C219.918 473.76 221.252 474.067 222.452 474.68C223.678 475.267 224.572 476.027 225.132 476.96L224.932 477.64L225.332 474.44H228.732V491.12C228.732 492.613 228.345 493.973 227.572 495.2C226.798 496.427 225.705 497.4 224.292 498.12C222.878 498.84 221.185 499.2 219.212 499.2ZM213.532 482.56C213.532 483.627 213.785 484.6 214.292 485.48C214.798 486.36 215.478 487.053 216.332 487.56C217.212 488.067 218.185 488.32 219.252 488.32C220.238 488.32 221.118 488.147 221.892 487.8C222.692 487.427 223.358 486.933 223.892 486.32C224.425 485.68 224.798 484.947 225.012 484.12V480.84C224.772 480.04 224.372 479.347 223.812 478.76C223.252 478.147 222.585 477.68 221.812 477.36C221.038 477.013 220.185 476.84 219.252 476.84C218.185 476.84 217.212 477.08 216.332 477.56C215.478 478.04 214.798 478.72 214.292 479.6C213.785 480.453 213.532 481.44 213.532 482.56ZM242.038 491.4C240.491 491.4 239.078 491.067 237.798 490.4C236.545 489.733 235.545 488.76 234.798 487.48C234.078 486.173 233.718 484.587 233.718 482.72C233.718 480.88 234.105 479.293 234.878 477.96C235.651 476.6 236.678 475.56 237.958 474.84C239.265 474.12 240.691 473.76 242.238 473.76C243.785 473.76 245.091 474.12 246.158 474.84C247.225 475.533 248.038 476.36 248.598 477.32L248.358 477.96L248.718 474.44H252.158V491H248.438V486.68L248.838 487.64C248.731 487.907 248.491 488.253 248.118 488.68C247.771 489.08 247.291 489.493 246.678 489.92C246.091 490.347 245.411 490.707 244.638 491C243.865 491.267 242.998 491.4 242.038 491.4ZM243.038 488.32C243.971 488.32 244.811 488.147 245.558 487.8C246.305 487.453 246.918 486.973 247.398 486.36C247.905 485.72 248.251 484.96 248.438 484.08V480.84C248.225 480.04 247.851 479.347 247.318 478.76C246.785 478.147 246.145 477.68 245.398 477.36C244.651 477.013 243.825 476.84 242.918 476.84C241.931 476.84 241.025 477.08 240.198 477.56C239.371 478.04 238.705 478.707 238.198 479.56C237.718 480.413 237.478 481.413 237.478 482.56C237.478 483.627 237.731 484.6 238.238 485.48C238.745 486.36 239.425 487.053 240.278 487.56C241.131 488.067 242.051 488.32 243.038 488.32ZM261.915 474.44L262.275 479.24L262.075 478.6C262.502 477.587 263.115 476.733 263.915 476.04C264.742 475.32 265.595 474.773 266.475 474.4C267.382 474 268.169 473.8 268.835 473.8L268.635 477.48C267.382 477.4 266.275 477.64 265.315 478.2C264.382 478.76 263.635 479.507 263.075 480.44C262.542 481.373 262.275 482.373 262.275 483.44V491H258.595V474.44H261.915ZM275.235 467.16H278.955V474.52H283.515V477.44H278.955V491H275.235V477.44H272.195V474.52H275.235V467.16ZM288.01 474.44H291.73V491H288.01V474.44ZM287.73 468.44C287.73 467.853 287.956 467.36 288.41 466.96C288.89 466.56 289.41 466.36 289.97 466.36C290.53 466.36 291.023 466.56 291.45 466.96C291.903 467.36 292.13 467.853 292.13 468.44C292.13 469.053 291.903 469.56 291.45 469.96C291.023 470.333 290.53 470.52 289.97 470.52C289.41 470.52 288.89 470.32 288.41 469.92C287.956 469.52 287.73 469.027 287.73 468.44ZM304.406 480.6L308.366 474.44H312.126L305.766 483.32L304.406 480.6ZM312.766 491H308.286L295.686 474.44H300.286L312.766 491ZM304.006 484.84L299.646 491H295.886L302.206 482.36L304.006 484.84ZM323.64 491.4C322.093 491.4 320.68 491.067 319.4 490.4C318.146 489.733 317.146 488.76 316.4 487.48C315.68 486.173 315.32 484.587 315.32 482.72C315.32 480.88 315.706 479.293 316.48 477.96C317.253 476.6 318.28 475.56 319.56 474.84C320.866 474.12 322.293 473.76 323.84 473.76C325.386 473.76 326.693 474.12 327.76 474.84C328.826 475.533 329.64 476.36 330.2 477.32L329.96 477.96L330.32 474.44H333.76V491H330.04V486.68L330.44 487.64C330.333 487.907 330.093 488.253 329.72 488.68C329.373 489.08 328.893 489.493 328.28 489.92C327.693 490.347 327.013 490.707 326.24 491C325.466 491.267 324.6 491.4 323.64 491.4ZM324.64 488.32C325.573 488.32 326.413 488.147 327.16 487.8C327.906 487.453 328.52 486.973 329 486.36C329.506 485.72 329.853 484.96 330.04 484.08V480.84C329.826 480.04 329.453 479.347 328.92 478.76C328.386 478.147 327.746 477.68 327 477.36C326.253 477.013 325.426 476.84 324.52 476.84C323.533 476.84 322.626 477.08 321.8 477.56C320.973 478.04 320.306 478.707 319.8 479.56C319.32 480.413 319.08 481.413 319.08 482.56C319.08 483.627 319.333 484.6 319.84 485.48C320.346 486.36 321.026 487.053 321.88 487.56C322.733 488.067 323.653 488.32 324.64 488.32ZM339.077 480.76H346.557V484.04H339.077V480.76ZM353.265 491V462.08H361.145C363.999 462.08 366.425 462.52 368.425 463.4C370.452 464.28 372.079 465.44 373.305 466.88C374.532 468.32 375.425 469.92 375.985 471.68C376.572 473.413 376.865 475.147 376.865 476.88C376.865 479.067 376.479 481.027 375.705 482.76C374.959 484.493 373.919 485.973 372.585 487.2C371.252 488.427 369.719 489.373 367.985 490.04C366.279 490.68 364.465 491 362.545 491H353.265ZM357.145 487.28H361.785C363.385 487.28 364.852 487.04 366.185 486.56C367.545 486.08 368.719 485.387 369.705 484.48C370.719 483.573 371.505 482.467 372.065 481.16C372.625 479.827 372.905 478.32 372.905 476.64C372.905 474.853 372.612 473.293 372.025 471.96C371.439 470.6 370.639 469.467 369.625 468.56C368.612 467.653 367.465 466.973 366.185 466.52C364.905 466.04 363.559 465.8 362.145 465.8H357.145V487.28ZM381.023 482.56C381.023 480.907 381.409 479.413 382.183 478.08C382.983 476.747 384.076 475.693 385.463 474.92C386.849 474.147 388.423 473.76 390.183 473.76C391.996 473.76 393.583 474.147 394.943 474.92C396.303 475.693 397.356 476.747 398.103 478.08C398.849 479.413 399.223 480.907 399.223 482.56C399.223 484.213 398.849 485.72 398.103 487.08C397.356 488.413 396.289 489.467 394.903 490.24C393.543 491.013 391.956 491.4 390.143 491.4C388.383 491.4 386.809 491.04 385.423 490.32C384.063 489.573 382.983 488.547 382.183 487.24C381.409 485.907 381.023 484.347 381.023 482.56ZM384.743 482.6C384.743 483.667 384.983 484.64 385.463 485.52C385.943 486.373 386.583 487.053 387.383 487.56C388.209 488.067 389.116 488.32 390.103 488.32C391.143 488.32 392.063 488.067 392.863 487.56C393.689 487.053 394.329 486.373 394.783 485.52C395.236 484.64 395.463 483.667 395.463 482.6C395.463 481.533 395.236 480.573 394.783 479.72C394.329 478.84 393.689 478.147 392.863 477.64C392.063 477.107 391.143 476.84 390.103 476.84C389.089 476.84 388.169 477.107 387.343 477.64C386.543 478.173 385.903 478.88 385.423 479.76C384.969 480.613 384.743 481.56 384.743 482.6ZM407.58 474.44L407.9 478.16L407.74 477.84C408.353 476.587 409.22 475.6 410.34 474.88C411.486 474.16 412.793 473.8 414.26 473.8C415.193 473.8 416.02 473.947 416.74 474.24C417.46 474.533 418.046 474.96 418.5 475.52C418.98 476.053 419.286 476.72 419.42 477.52L419.22 477.64C419.86 476.44 420.74 475.507 421.86 474.84C423.006 474.147 424.206 473.8 425.46 473.8C427.086 473.8 428.366 474.267 429.3 475.2C430.26 476.107 430.753 477.293 430.78 478.76V491H427.06V480.08C427.033 479.227 426.82 478.52 426.42 477.96C426.046 477.373 425.38 477.053 424.42 477C423.46 477 422.593 477.293 421.82 477.88C421.073 478.467 420.486 479.227 420.06 480.16C419.633 481.067 419.406 482.053 419.38 483.12V491H415.66V480.08C415.633 479.227 415.406 478.52 414.98 477.96C414.58 477.373 413.9 477.053 412.94 477C411.953 477 411.086 477.293 410.34 477.88C409.593 478.467 409.006 479.227 408.58 480.16C408.18 481.093 407.98 482.093 407.98 483.16V491H404.26V474.44H407.58ZM444.947 491.4C443.054 491.4 441.427 491.027 440.067 490.28C438.707 489.507 437.654 488.467 436.907 487.16C436.187 485.827 435.827 484.307 435.827 482.6C435.827 480.973 436.241 479.493 437.067 478.16C437.894 476.827 439.001 475.76 440.387 474.96C441.774 474.16 443.321 473.76 445.027 473.76C447.214 473.76 449.027 474.4 450.467 475.68C451.907 476.96 452.881 478.72 453.387 480.96L439.747 485.76L438.867 483.56L450.067 479.48L449.267 480C448.947 479.12 448.414 478.36 447.667 477.72C446.921 477.053 445.947 476.72 444.747 476.72C443.734 476.72 442.827 476.973 442.027 477.48C441.227 477.96 440.601 478.627 440.147 479.48C439.694 480.333 439.467 481.307 439.467 482.4C439.467 483.547 439.707 484.56 440.187 485.44C440.667 486.293 441.321 486.973 442.147 487.48C443.001 487.96 443.961 488.2 445.027 488.2C445.747 488.2 446.441 488.067 447.107 487.8C447.801 487.533 448.441 487.187 449.027 486.76L450.747 489.52C449.921 490.08 448.987 490.533 447.947 490.88C446.934 491.227 445.934 491.4 444.947 491.4ZM449.307 466L444.227 471.36H441.867L445.187 466H449.307ZM462.689 491.32C461.515 491.32 460.369 491.12 459.249 490.72C458.155 490.293 457.249 489.667 456.529 488.84L458.089 486.68C458.782 487.347 459.489 487.853 460.209 488.2C460.955 488.52 461.689 488.68 462.409 488.68C462.942 488.68 463.435 488.613 463.889 488.48C464.342 488.347 464.702 488.133 464.969 487.84C465.262 487.52 465.409 487.093 465.409 486.56C465.409 485.973 465.209 485.507 464.809 485.16C464.435 484.813 463.942 484.533 463.329 484.32C462.742 484.107 462.115 483.907 461.449 483.72C460.089 483.267 459.049 482.64 458.329 481.84C457.609 481.04 457.249 480.067 457.249 478.92C457.249 478.04 457.462 477.227 457.889 476.48C458.342 475.707 458.995 475.08 459.849 474.6C460.729 474.12 461.809 473.88 463.089 473.88C464.235 473.88 465.262 474.027 466.169 474.32C467.075 474.587 467.929 475.04 468.729 475.68L467.249 478C466.769 477.493 466.195 477.12 465.529 476.88C464.862 476.64 464.262 476.507 463.729 476.48C463.275 476.453 462.835 476.52 462.409 476.68C462.009 476.84 461.675 477.067 461.409 477.36C461.142 477.653 461.009 478 461.009 478.4C461.009 478.96 461.195 479.413 461.569 479.76C461.942 480.107 462.422 480.387 463.009 480.6C463.622 480.787 464.222 480.987 464.809 481.2C465.635 481.44 466.369 481.76 467.009 482.16C467.649 482.56 468.155 483.053 468.529 483.64C468.929 484.227 469.129 484.96 469.129 485.84C469.129 486.827 468.889 487.747 468.409 488.6C467.955 489.427 467.249 490.093 466.289 490.6C465.355 491.08 464.155 491.32 462.689 491.32ZM475.938 467.16H479.658V474.52H484.218V477.44H479.658V491H475.938V477.44H472.898V474.52H475.938V467.16ZM488.713 474.44H492.433V491H488.713V474.44ZM488.433 468.44C488.433 467.853 488.659 467.36 489.113 466.96C489.593 466.56 490.113 466.36 490.673 466.36C491.233 466.36 491.726 466.56 492.153 466.96C492.606 467.36 492.833 467.853 492.833 468.44C492.833 469.053 492.606 469.56 492.153 469.96C491.726 470.333 491.233 470.52 490.673 470.52C490.113 470.52 489.593 470.32 489.113 469.92C488.659 469.52 488.433 469.027 488.433 468.44ZM512.309 489.48C511.562 490.067 510.669 490.533 509.629 490.88C508.589 491.227 507.549 491.4 506.509 491.4C504.696 491.4 503.109 491.04 501.749 490.32C500.389 489.6 499.322 488.6 498.549 487.32C497.802 486.013 497.429 484.48 497.429 482.72C497.429 480.96 497.829 479.427 498.629 478.12C499.456 476.813 500.522 475.813 501.829 475.12C503.162 474.4 504.589 474.04 506.109 474.04C507.442 474.04 508.629 474.227 509.669 474.6C510.736 474.973 511.642 475.48 512.389 476.12L510.549 478.52C510.069 478.147 509.482 477.813 508.789 477.52C508.096 477.227 507.309 477.08 506.429 477.08C505.469 477.08 504.576 477.333 503.749 477.84C502.949 478.32 502.309 478.987 501.829 479.84C501.376 480.693 501.149 481.653 501.149 482.72C501.149 483.733 501.389 484.68 501.869 485.56C502.349 486.413 503.016 487.093 503.869 487.6C504.722 488.08 505.696 488.32 506.789 488.32C507.509 488.32 508.162 488.213 508.749 488C509.362 487.787 509.909 487.493 510.389 487.12L512.309 489.48ZM523.991 491.4C522.444 491.4 521.031 491.067 519.751 490.4C518.498 489.733 517.498 488.76 516.751 487.48C516.031 486.173 515.671 484.587 515.671 482.72C515.671 480.88 516.058 479.293 516.831 477.96C517.604 476.6 518.631 475.56 519.911 474.84C521.218 474.12 522.644 473.76 524.191 473.76C525.738 473.76 527.044 474.12 528.111 474.84C529.178 475.533 529.991 476.36 530.551 477.32L530.311 477.96L530.671 474.44H534.111V491H530.391V486.68L530.791 487.64C530.684 487.907 530.444 488.253 530.071 488.68C529.724 489.08 529.244 489.493 528.631 489.92C528.044 490.347 527.364 490.707 526.591 491C525.818 491.267 524.951 491.4 523.991 491.4ZM524.991 488.32C525.924 488.32 526.764 488.147 527.511 487.8C528.258 487.453 528.871 486.973 529.351 486.36C529.858 485.72 530.204 484.96 530.391 484.08V480.84C530.178 480.04 529.804 479.347 529.271 478.76C528.738 478.147 528.098 477.68 527.351 477.36C526.604 477.013 525.778 476.84 524.871 476.84C523.884 476.84 522.978 477.08 522.151 477.56C521.324 478.04 520.658 478.707 520.151 479.56C519.671 480.413 519.431 481.413 519.431 482.56C519.431 483.627 519.684 484.6 520.191 485.48C520.698 486.36 521.378 487.053 522.231 487.56C523.084 488.067 524.004 488.32 524.991 488.32Z" fill="black"/>
<path d="M103.522 555.972L112.09 577.5L110.11 577.104L118.246 555.972H122.314L110.83 583.188L99.3823 555.972H103.522ZM121.358 574.404C121.358 572.916 121.706 571.572 122.402 570.372C123.122 569.172 124.106 568.224 125.354 567.528C126.602 566.832 128.018 566.484 129.602 566.484C131.234 566.484 132.662 566.832 133.886 567.528C135.11 568.224 136.058 569.172 136.73 570.372C137.402 571.572 137.738 572.916 137.738 574.404C137.738 575.892 137.402 577.248 136.73 578.472C136.058 579.672 135.098 580.62 133.85 581.316C132.626 582.012 131.198 582.36 129.566 582.36C127.982 582.36 126.566 582.036 125.318 581.388C124.094 580.716 123.122 579.792 122.402 578.616C121.706 577.416 121.358 576.012 121.358 574.404ZM124.706 574.44C124.706 575.4 124.922 576.276 125.354 577.068C125.786 577.836 126.362 578.448 127.082 578.904C127.826 579.36 128.642 579.588 129.53 579.588C130.466 579.588 131.294 579.36 132.014 578.904C132.758 578.448 133.334 577.836 133.742 577.068C134.15 576.276 134.354 575.4 134.354 574.44C134.354 573.48 134.15 572.616 133.742 571.848C133.334 571.056 132.758 570.432 132.014 569.976C131.294 569.496 130.466 569.256 129.53 569.256C128.618 569.256 127.79 569.496 127.046 569.976C126.326 570.456 125.75 571.092 125.318 571.884C124.91 572.652 124.706 573.504 124.706 574.44ZM154.367 580.632C153.695 581.16 152.891 581.58 151.955 581.892C151.019 582.204 150.083 582.36 149.147 582.36C147.515 582.36 146.087 582.036 144.863 581.388C143.639 580.74 142.679 579.84 141.983 578.688C141.311 577.512 140.975 576.132 140.975 574.548C140.975 572.964 141.335 571.584 142.055 570.408C142.799 569.232 143.759 568.332 144.935 567.708C146.135 567.06 147.419 566.736 148.787 566.736C149.987 566.736 151.055 566.904 151.991 567.24C152.951 567.576 153.767 568.032 154.439 568.608L152.783 570.768C152.351 570.432 151.823 570.132 151.199 569.868C150.575 569.604 149.867 569.472 149.075 569.472C148.211 569.472 147.407 569.7 146.663 570.156C145.943 570.588 145.367 571.188 144.935 571.956C144.527 572.724 144.323 573.588 144.323 574.548C144.323 575.46 144.539 576.312 144.971 577.104C145.403 577.872 146.003 578.484 146.771 578.94C147.539 579.372 148.415 579.588 149.399 579.588C150.047 579.588 150.635 579.492 151.163 579.3C151.715 579.108 152.207 578.844 152.639 578.508L154.367 580.632ZM165.601 582.36C163.897 582.36 162.433 582.024 161.209 581.352C159.985 580.656 159.037 579.72 158.365 578.544C157.717 577.344 157.393 575.976 157.393 574.44C157.393 572.976 157.765 571.644 158.509 570.444C159.253 569.244 160.249 568.284 161.497 567.564C162.745 566.844 164.137 566.484 165.673 566.484C167.641 566.484 169.273 567.06 170.569 568.212C171.865 569.364 172.741 570.948 173.197 572.964L160.921 577.284L160.129 575.304L170.209 571.632L169.489 572.1C169.201 571.308 168.721 570.624 168.049 570.048C167.377 569.448 166.501 569.148 165.421 569.148C164.509 569.148 163.693 569.376 162.973 569.832C162.253 570.264 161.689 570.864 161.281 571.632C160.873 572.4 160.669 573.276 160.669 574.26C160.669 575.292 160.885 576.204 161.317 576.996C161.749 577.764 162.337 578.376 163.081 578.832C163.849 579.264 164.713 579.48 165.673 579.48C166.321 579.48 166.945 579.36 167.545 579.12C168.169 578.88 168.745 578.568 169.273 578.184L170.821 580.668C170.077 581.172 169.237 581.58 168.301 581.892C167.389 582.204 166.489 582.36 165.601 582.36ZM168.301 564.036L164.953 560.508L165.925 560.292L162.505 564.036H159.409L165.349 557.88H165.385L171.397 564.036H168.301ZM191.771 567.096L192.095 571.416L191.915 570.84C192.299 569.928 192.851 569.16 193.571 568.536C194.315 567.888 195.083 567.396 195.875 567.06C196.691 566.7 197.399 566.52 197.999 566.52L197.819 569.832C196.691 569.76 195.695 569.976 194.831 570.48C193.991 570.984 193.319 571.656 192.815 572.496C192.335 573.336 192.095 574.236 192.095 575.196V582H188.783V567.096H191.771ZM208.598 582.36C206.894 582.36 205.43 582.024 204.206 581.352C202.982 580.656 202.034 579.72 201.362 578.544C200.714 577.344 200.39 575.976 200.39 574.44C200.39 572.976 200.762 571.644 201.506 570.444C202.25 569.244 203.246 568.284 204.494 567.564C205.742 566.844 207.134 566.484 208.67 566.484C210.638 566.484 212.27 567.06 213.566 568.212C214.862 569.364 215.738 570.948 216.194 572.964L203.918 577.284L203.126 575.304L213.206 571.632L212.486 572.1C212.198 571.308 211.718 570.624 211.046 570.048C210.374 569.448 209.498 569.148 208.418 569.148C207.506 569.148 206.69 569.376 205.97 569.832C205.25 570.264 204.686 570.864 204.278 571.632C203.87 572.4 203.666 573.276 203.666 574.26C203.666 575.292 203.882 576.204 204.314 576.996C204.746 577.764 205.334 578.376 206.078 578.832C206.846 579.264 207.71 579.48 208.67 579.48C209.318 579.48 209.942 579.36 210.542 579.12C211.166 578.88 211.742 578.568 212.27 578.184L213.818 580.668C213.074 581.172 212.234 581.58 211.298 581.892C210.386 582.204 209.486 582.36 208.598 582.36ZM221.829 560.544H225.177V567.168H229.281V569.796H225.177V582H221.829V569.796H219.093V567.168H221.829V560.544ZM232.03 574.404C232.03 572.916 232.378 571.572 233.074 570.372C233.794 569.172 234.778 568.224 236.026 567.528C237.274 566.832 238.69 566.484 240.274 566.484C241.906 566.484 243.334 566.832 244.558 567.528C245.782 568.224 246.73 569.172 247.402 570.372C248.074 571.572 248.41 572.916 248.41 574.404C248.41 575.892 248.074 577.248 247.402 578.472C246.73 579.672 245.77 580.62 244.522 581.316C243.298 582.012 241.87 582.36 240.238 582.36C238.654 582.36 237.238 582.036 235.99 581.388C234.766 580.716 233.794 579.792 233.074 578.616C232.378 577.416 232.03 576.012 232.03 574.404ZM235.378 574.44C235.378 575.4 235.594 576.276 236.026 577.068C236.458 577.836 237.034 578.448 237.754 578.904C238.498 579.36 239.314 579.588 240.202 579.588C241.138 579.588 241.966 579.36 242.686 578.904C243.43 578.448 244.006 577.836 244.414 577.068C244.822 576.276 245.026 575.4 245.026 574.44C245.026 573.48 244.822 572.616 244.414 571.848C244.006 571.056 243.43 570.432 242.686 569.976C241.966 569.496 241.138 569.256 240.202 569.256C239.29 569.256 238.462 569.496 237.718 569.976C236.998 570.456 236.422 571.092 235.99 571.884C235.582 572.652 235.378 573.504 235.378 574.44ZM255.931 567.096L256.255 571.416L256.075 570.84C256.459 569.928 257.011 569.16 257.731 568.536C258.475 567.888 259.243 567.396 260.035 567.06C260.851 566.7 261.559 566.52 262.159 566.52L261.979 569.832C260.851 569.76 259.855 569.976 258.991 570.48C258.151 570.984 257.479 571.656 256.975 572.496C256.495 573.336 256.255 574.236 256.255 575.196V582H252.943V567.096H255.931ZM269.467 567.096L269.755 570.732L269.611 570.156C270.091 569.052 270.871 568.176 271.951 567.528C273.031 566.856 274.279 566.52 275.695 566.52C277.111 566.52 278.263 566.94 279.151 567.78C280.063 568.596 280.531 569.664 280.555 570.984V582H277.171V572.172C277.147 571.356 276.907 570.696 276.451 570.192C276.019 569.664 275.335 569.4 274.399 569.4C273.535 569.4 272.755 569.64 272.059 570.12C271.363 570.6 270.811 571.26 270.403 572.1C270.019 572.94 269.827 573.912 269.827 575.016V582H266.479V567.096H269.467ZM285.081 574.404C285.081 572.916 285.429 571.572 286.125 570.372C286.845 569.172 287.829 568.224 289.077 567.528C290.325 566.832 291.741 566.484 293.325 566.484C294.957 566.484 296.385 566.832 297.609 567.528C298.833 568.224 299.781 569.172 300.453 570.372C301.125 571.572 301.461 572.916 301.461 574.404C301.461 575.892 301.125 577.248 300.453 578.472C299.781 579.672 298.821 580.62 297.573 581.316C296.349 582.012 294.921 582.36 293.289 582.36C291.705 582.36 290.289 582.036 289.041 581.388C287.817 580.716 286.845 579.792 286.125 578.616C285.429 577.416 285.081 576.012 285.081 574.404ZM288.429 574.44C288.429 575.4 288.645 576.276 289.077 577.068C289.509 577.836 290.085 578.448 290.805 578.904C291.549 579.36 292.365 579.588 293.253 579.588C294.189 579.588 295.017 579.36 295.737 578.904C296.481 578.448 297.057 577.836 297.465 577.068C297.873 576.276 298.077 575.4 298.077 574.44C298.077 573.48 297.873 572.616 297.465 571.848C297.057 571.056 296.481 570.432 295.737 569.976C295.017 569.496 294.189 569.256 293.253 569.256C292.341 569.256 291.513 569.496 290.769 569.976C290.049 570.456 289.473 571.092 289.041 571.884C288.633 572.652 288.429 573.504 288.429 574.44ZM310.71 582.576C309.366 582.576 308.25 582.168 307.362 581.352C306.498 580.512 306.042 579.432 305.994 578.112V567.096H309.342V576.924C309.39 577.74 309.618 578.4 310.026 578.904C310.458 579.408 311.13 579.672 312.042 579.696C312.882 579.696 313.626 579.456 314.274 578.976C314.946 578.472 315.486 577.8 315.894 576.96C316.302 576.096 316.506 575.124 316.506 574.044V567.096H319.854V582H316.794L316.506 578.328L316.686 578.976C316.398 579.672 315.954 580.296 315.354 580.848C314.778 581.376 314.094 581.796 313.302 582.108C312.51 582.42 311.646 582.576 310.71 582.576ZM335.741 574.404C335.741 572.916 336.089 571.572 336.785 570.372C337.505 569.172 338.489 568.224 339.737 567.528C340.985 566.832 342.401 566.484 343.985 566.484C345.617 566.484 347.045 566.832 348.269 567.528C349.493 568.224 350.441 569.172 351.113 570.372C351.785 571.572 352.121 572.916 352.121 574.404C352.121 575.892 351.785 577.248 351.113 578.472C350.441 579.672 349.481 580.62 348.233 581.316C347.009 582.012 345.581 582.36 343.949 582.36C342.365 582.36 340.949 582.036 339.701 581.388C338.477 580.716 337.505 579.792 336.785 578.616C336.089 577.416 335.741 576.012 335.741 574.404ZM339.089 574.44C339.089 575.4 339.305 576.276 339.737 577.068C340.169 577.836 340.745 578.448 341.465 578.904C342.209 579.36 343.025 579.588 343.913 579.588C344.849 579.588 345.677 579.36 346.397 578.904C347.141 578.448 347.717 577.836 348.125 577.068C348.533 576.276 348.737 575.4 348.737 574.44C348.737 573.48 348.533 572.616 348.125 571.848C347.717 571.056 347.141 570.432 346.397 569.976C345.677 569.496 344.849 569.256 343.913 569.256C343.001 569.256 342.173 569.496 341.429 569.976C340.709 570.456 340.133 571.092 339.701 571.884C339.293 572.652 339.089 573.504 339.089 574.44ZM374.237 582.36C372.845 582.36 371.573 582.06 370.421 581.46C369.293 580.86 368.393 579.984 367.721 578.832C367.073 577.656 366.749 576.228 366.749 574.548C366.749 572.892 367.097 571.464 367.793 570.264C368.489 569.04 369.413 568.104 370.565 567.456C371.741 566.808 373.025 566.484 374.417 566.484C375.809 566.484 376.985 566.808 377.945 567.456C378.905 568.08 379.637 568.824 380.141 569.688L379.925 570.264L380.249 567.096H383.345V582H379.997V578.112L380.357 578.976C380.261 579.216 380.045 579.528 379.709 579.912C379.397 580.272 378.965 580.644 378.413 581.028C377.885 581.412 377.273 581.736 376.577 582C375.881 582.24 375.101 582.36 374.237 582.36ZM375.137 579.588C375.977 579.588 376.733 579.432 377.405 579.12C378.077 578.808 378.629 578.376 379.061 577.824C379.517 577.248 379.829 576.564 379.997 575.772V572.856C379.805 572.136 379.469 571.512 378.989 570.984C378.509 570.432 377.933 570.012 377.261 569.724C376.589 569.412 375.845 569.256 375.029 569.256C374.141 569.256 373.325 569.472 372.581 569.904C371.837 570.336 371.237 570.936 370.781 571.704C370.349 572.472 370.133 573.372 370.133 574.404C370.133 575.364 370.361 576.24 370.817 577.032C371.273 577.824 371.885 578.448 372.653 578.904C373.421 579.36 374.249 579.588 375.137 579.588ZM392.127 567.096L392.415 570.732L392.271 570.156C392.751 569.052 393.531 568.176 394.611 567.528C395.691 566.856 396.939 566.52 398.355 566.52C399.771 566.52 400.923 566.94 401.811 567.78C402.723 568.596 403.191 569.664 403.215 570.984V582H399.831V572.172C399.807 571.356 399.567 570.696 399.111 570.192C398.679 569.664 397.995 569.4 397.059 569.4C396.195 569.4 395.415 569.64 394.719 570.12C394.023 570.6 393.471 571.26 393.063 572.1C392.679 572.94 392.487 573.912 392.487 575.016V582H389.139V567.096H392.127ZM409.037 567.096H412.385V582H409.037V567.096ZM408.785 561.696C408.785 561.168 408.989 560.724 409.397 560.364C409.829 560.004 410.297 559.824 410.801 559.824C411.305 559.824 411.749 560.004 412.133 560.364C412.541 560.724 412.745 561.168 412.745 561.696C412.745 562.248 412.541 562.704 412.133 563.064C411.749 563.4 411.305 563.568 410.801 563.568C410.297 563.568 409.829 563.388 409.397 563.028C408.989 562.668 408.785 562.224 408.785 561.696ZM421.166 567.096L421.454 570.444L421.31 570.156C421.862 569.028 422.642 568.14 423.65 567.492C424.682 566.844 425.858 566.52 427.178 566.52C428.018 566.52 428.762 566.652 429.41 566.916C430.058 567.18 430.586 567.564 430.994 568.068C431.426 568.548 431.702 569.148 431.822 569.868L431.642 569.976C432.218 568.896 433.01 568.056 434.018 567.456C435.05 566.832 436.13 566.52 437.258 566.52C438.722 566.52 439.874 566.94 440.714 567.78C441.578 568.596 442.022 569.664 442.046 570.984V582H438.698V572.172C438.674 571.404 438.482 570.768 438.122 570.264C437.786 569.736 437.186 569.448 436.322 569.4C435.458 569.4 434.678 569.664 433.982 570.192C433.31 570.72 432.782 571.404 432.398 572.244C432.014 573.06 431.81 573.948 431.786 574.908V582H428.438V572.172C428.414 571.404 428.21 570.768 427.826 570.264C427.466 569.736 426.854 569.448 425.99 569.4C425.102 569.4 424.322 569.664 423.65 570.192C422.978 570.72 422.45 571.404 422.066 572.244C421.706 573.084 421.526 573.984 421.526 574.944V582H418.178V567.096H421.166ZM454.077 582.36C452.685 582.36 451.413 582.06 450.261 581.46C449.133 580.86 448.233 579.984 447.561 578.832C446.913 577.656 446.589 576.228 446.589 574.548C446.589 572.892 446.937 571.464 447.633 570.264C448.329 569.04 449.253 568.104 450.405 567.456C451.581 566.808 452.865 566.484 454.257 566.484C455.649 566.484 456.825 566.808 457.785 567.456C458.745 568.08 459.477 568.824 459.981 569.688L459.765 570.264L460.089 567.096H463.185V582H459.837V578.112L460.197 578.976C460.101 579.216 459.885 579.528 459.549 579.912C459.237 580.272 458.805 580.644 458.253 581.028C457.725 581.412 457.113 581.736 456.417 582C455.721 582.24 454.941 582.36 454.077 582.36ZM454.977 579.588C455.817 579.588 456.573 579.432 457.245 579.12C457.917 578.808 458.469 578.376 458.901 577.824C459.357 577.248 459.669 576.564 459.837 575.772V572.856C459.645 572.136 459.309 571.512 458.829 570.984C458.349 570.432 457.773 570.012 457.101 569.724C456.429 569.412 455.685 569.256 454.869 569.256C453.981 569.256 453.165 569.472 452.421 569.904C451.677 570.336 451.077 570.936 450.621 571.704C450.189 572.472 449.973 573.372 449.973 574.404C449.973 575.364 450.201 576.24 450.657 577.032C451.113 577.824 451.725 578.448 452.493 578.904C453.261 579.36 454.089 579.588 454.977 579.588ZM468.979 554.136H472.327V582H468.979V554.136ZM496.422 582.36C494.718 582.36 493.254 582.024 492.03 581.352C490.806 580.656 489.858 579.72 489.186 578.544C488.538 577.344 488.214 575.976 488.214 574.44C488.214 572.976 488.586 571.644 489.33 570.444C490.074 569.244 491.07 568.284 492.318 567.564C493.566 566.844 494.958 566.484 496.494 566.484C498.462 566.484 500.094 567.06 501.39 568.212C502.686 569.364 503.562 570.948 504.018 572.964L491.742 577.284L490.95 575.304L501.03 571.632L500.31 572.1C500.022 571.308 499.542 570.624 498.87 570.048C498.198 569.448 497.322 569.148 496.242 569.148C495.33 569.148 494.514 569.376 493.794 569.832C493.074 570.264 492.51 570.864 492.102 571.632C491.694 572.4 491.49 573.276 491.49 574.26C491.49 575.292 491.706 576.204 492.138 576.996C492.57 577.764 493.158 578.376 493.902 578.832C494.67 579.264 495.534 579.48 496.494 579.48C497.142 579.48 497.766 579.36 498.366 579.12C498.99 578.88 499.566 578.568 500.094 578.184L501.642 580.668C500.898 581.172 500.058 581.58 499.122 581.892C498.21 582.204 497.31 582.36 496.422 582.36ZM513.407 572.64L516.971 567.096H520.355L514.631 575.088L513.407 572.64ZM520.931 582H516.899L505.559 567.096H509.699L520.931 582ZM513.047 576.456L509.123 582H505.739L511.427 574.224L513.047 576.456ZM522.983 574.404C522.983 572.916 523.331 571.572 524.027 570.372C524.747 569.172 525.731 568.224 526.979 567.528C528.227 566.832 529.643 566.484 531.227 566.484C532.859 566.484 534.287 566.832 535.511 567.528C536.735 568.224 537.683 569.172 538.355 570.372C539.027 571.572 539.363 572.916 539.363 574.404C539.363 575.892 539.027 577.248 538.355 578.472C537.683 579.672 536.723 580.62 535.475 581.316C534.251 582.012 532.823 582.36 531.191 582.36C529.607 582.36 528.191 582.036 526.943 581.388C525.719 580.716 524.747 579.792 524.027 578.616C523.331 577.416 522.983 576.012 522.983 574.404ZM526.331 574.44C526.331 575.4 526.547 576.276 526.979 577.068C527.411 577.836 527.987 578.448 528.707 578.904C529.451 579.36 530.267 579.588 531.155 579.588C532.091 579.588 532.919 579.36 533.639 578.904C534.383 578.448 534.959 577.836 535.367 577.068C535.775 576.276 535.979 575.4 535.979 574.44C535.979 573.48 535.775 572.616 535.367 571.848C534.959 571.056 534.383 570.432 533.639 569.976C532.919 569.496 532.091 569.256 531.155 569.256C530.243 569.256 529.415 569.496 528.671 569.976C527.951 570.456 527.375 571.092 526.943 571.884C526.535 572.652 526.331 573.504 526.331 574.44ZM535.259 559.536L530.687 564.36H528.563L531.551 559.536H535.259ZM545.336 560.544H548.684V567.168H552.788V569.796H548.684V582H545.336V569.796H542.6V567.168H545.336V560.544ZM556.834 567.096H560.182V582H556.834V567.096ZM556.582 561.696C556.582 561.168 556.786 560.724 557.194 560.364C557.626 560.004 558.094 559.824 558.598 559.824C559.102 559.824 559.546 560.004 559.93 560.364C560.338 560.724 560.542 561.168 560.542 561.696C560.542 562.248 560.338 562.704 559.93 563.064C559.546 563.4 559.102 563.568 558.598 563.568C558.094 563.568 557.626 563.388 557.194 563.028C556.786 562.668 556.582 562.224 556.582 561.696ZM578.071 580.632C577.399 581.16 576.595 581.58 575.659 581.892C574.723 582.204 573.787 582.36 572.851 582.36C571.219 582.36 569.791 582.036 568.567 581.388C567.343 580.74 566.383 579.84 565.687 578.688C565.015 577.512 564.679 576.132 564.679 574.548C564.679 572.964 565.039 571.584 565.759 570.408C566.503 569.232 567.463 568.332 568.639 567.708C569.839 567.06 571.123 566.736 572.491 566.736C573.691 566.736 574.759 566.904 575.695 567.24C576.655 567.576 577.471 568.032 578.143 568.608L576.487 570.768C576.055 570.432 575.527 570.132 574.903 569.868C574.279 569.604 573.571 569.472 572.779 569.472C571.915 569.472 571.111 569.7 570.367 570.156C569.647 570.588 569.071 571.188 568.639 571.956C568.231 572.724 568.027 573.588 568.027 574.548C568.027 575.46 568.243 576.312 568.675 577.104C569.107 577.872 569.707 578.484 570.475 578.94C571.243 579.372 572.119 579.588 573.103 579.588C573.751 579.588 574.339 579.492 574.867 579.3C575.419 579.108 575.911 578.844 576.343 578.508L578.071 580.632ZM581.097 574.404C581.097 572.916 581.445 571.572 582.141 570.372C582.861 569.172 583.845 568.224 585.093 567.528C586.341 566.832 587.757 566.484 589.341 566.484C590.973 566.484 592.401 566.832 593.625 567.528C594.849 568.224 595.797 569.172 596.469 570.372C597.141 571.572 597.477 572.916 597.477 574.404C597.477 575.892 597.141 577.248 596.469 578.472C595.797 579.672 594.837 580.62 593.589 581.316C592.365 582.012 590.937 582.36 589.305 582.36C587.721 582.36 586.305 582.036 585.057 581.388C583.833 580.716 582.861 579.792 582.141 578.616C581.445 577.416 581.097 576.012 581.097 574.404ZM584.445 574.44C584.445 575.4 584.661 576.276 585.093 577.068C585.525 577.836 586.101 578.448 586.821 578.904C587.565 579.36 588.381 579.588 589.269 579.588C590.205 579.588 591.033 579.36 591.753 578.904C592.497 578.448 593.073 577.836 593.481 577.068C593.889 576.276 594.093 575.4 594.093 574.44C594.093 573.48 593.889 572.616 593.481 571.848C593.073 571.056 592.497 570.432 591.753 569.976C591.033 569.496 590.205 569.256 589.269 569.256C588.357 569.256 587.529 569.496 586.785 569.976C586.065 570.456 585.489 571.092 585.057 571.884C584.649 572.652 584.445 573.504 584.445 574.44ZM72.4704 618.36C71.1024 618.36 69.8904 618.06 68.8344 617.46C67.8024 616.86 66.9744 616.104 66.3504 615.192L66.7464 614.148V618H63.3984V590.136H66.7104V606.516L66.6024 605.256C67.2024 604.44 68.0544 603.78 69.1584 603.276C70.2864 602.748 71.5344 602.484 72.9024 602.484C74.2464 602.484 75.4704 602.808 76.5744 603.456C77.6784 604.104 78.5544 605.016 79.2024 606.192C79.8744 607.344 80.2104 608.724 80.2104 610.332C80.2104 612.012 79.8504 613.452 79.1304 614.652C78.4344 615.852 77.4984 616.776 76.3224 617.424C75.1464 618.048 73.8624 618.36 72.4704 618.36ZM71.7864 615.516C72.7464 615.516 73.6104 615.288 74.3784 614.832C75.1464 614.376 75.7464 613.764 76.1784 612.996C76.6104 612.204 76.8264 611.304 76.8264 610.296C76.8264 609.336 76.5984 608.472 76.1424 607.704C75.7104 606.912 75.1104 606.288 74.3424 605.832C73.5984 605.376 72.7464 605.148 71.7864 605.148C70.9704 605.148 70.2144 605.304 69.5184 605.616C68.8224 605.928 68.2344 606.36 67.7544 606.912C67.2744 607.44 66.9384 608.064 66.7464 608.784V611.772C66.9384 612.492 67.2624 613.14 67.7184 613.716C68.1744 614.268 68.7504 614.712 69.4464 615.048C70.1424 615.36 70.9224 615.516 71.7864 615.516ZM87.7263 603.096L88.0503 607.416L87.8703 606.84C88.2543 605.928 88.8063 605.16 89.5263 604.536C90.2703 603.888 91.0383 603.396 91.8303 603.06C92.6463 602.7 93.3543 602.52 93.9543 602.52L93.7743 605.832C92.6463 605.76 91.6503 605.976 90.7863 606.48C89.9463 606.984 89.2743 607.656 88.7703 608.496C88.2903 609.336 88.0503 610.236 88.0503 611.196V618H84.7383V603.096H87.7263ZM104.114 618.36C102.722 618.36 101.45 618.06 100.298 617.46C99.1699 616.86 98.2699 615.984 97.5979 614.832C96.9499 613.656 96.6259 612.228 96.6259 610.548C96.6259 608.892 96.9739 607.464 97.6699 606.264C98.3659 605.04 99.2899 604.104 100.442 603.456C101.618 602.808 102.902 602.484 104.294 602.484C105.686 602.484 106.862 602.808 107.822 603.456C108.782 604.08 109.514 604.824 110.018 605.688L109.802 606.264L110.126 603.096H113.222V618H109.874V614.112L110.234 614.976C110.138 615.216 109.922 615.528 109.586 615.912C109.274 616.272 108.842 616.644 108.29 617.028C107.762 617.412 107.15 617.736 106.454 618C105.758 618.24 104.978 618.36 104.114 618.36ZM105.014 615.588C105.854 615.588 106.61 615.432 107.282 615.12C107.954 614.808 108.506 614.376 108.938 613.824C109.394 613.248 109.706 612.564 109.874 611.772V608.856C109.682 608.136 109.346 607.512 108.866 606.984C108.386 606.432 107.81 606.012 107.138 605.724C106.466 605.412 105.722 605.256 104.906 605.256C104.018 605.256 103.202 605.472 102.458 605.904C101.714 606.336 101.114 606.936 100.658 607.704C100.226 608.472 100.01 609.372 100.01 610.404C100.01 611.364 100.238 612.24 100.694 613.032C101.15 613.824 101.762 614.448 102.53 614.904C103.298 615.36 104.126 615.588 105.014 615.588ZM123.192 618.288C122.136 618.288 121.104 618.108 120.096 617.748C119.112 617.364 118.296 616.8 117.648 616.056L119.052 614.112C119.676 614.712 120.312 615.168 120.96 615.48C121.632 615.768 122.292 615.912 122.94 615.912C123.42 615.912 123.864 615.852 124.272 615.732C124.68 615.612 125.004 615.42 125.244 615.156C125.508 614.868 125.64 614.484 125.64 614.004C125.64 613.476 125.46 613.056 125.1 612.744C124.764 612.432 124.32 612.18 123.768 611.988C123.24 611.796 122.676 611.616 122.076 611.448C120.852 611.04 119.916 610.476 119.268 609.756C118.62 609.036 118.296 608.16 118.296 607.128C118.296 606.336 118.488 605.604 118.872 604.932C119.28 604.236 119.868 603.672 120.636 603.24C121.428 602.808 122.4 602.592 123.552 602.592C124.584 602.592 125.508 602.724 126.324 602.988C127.14 603.228 127.908 603.636 128.628 604.212L127.296 606.3C126.864 605.844 126.348 605.508 125.748 605.292C125.148 605.076 124.608 604.956 124.128 604.932C123.72 604.908 123.324 604.968 122.94 605.112C122.58 605.256 122.28 605.46 122.04 605.724C121.8 605.988 121.68 606.3 121.68 606.66C121.68 607.164 121.848 607.572 122.184 607.884C122.52 608.196 122.952 608.448 123.48 608.64C124.032 608.808 124.572 608.988 125.1 609.18C125.844 609.396 126.504 609.684 127.08 610.044C127.656 610.404 128.112 610.848 128.448 611.376C128.808 611.904 128.988 612.564 128.988 613.356C128.988 614.244 128.772 615.072 128.34 615.84C127.932 616.584 127.296 617.184 126.432 617.64C125.592 618.072 124.512 618.288 123.192 618.288ZM133.676 603.096H137.024V618H133.676V603.096ZM133.424 597.696C133.424 597.168 133.628 596.724 134.036 596.364C134.468 596.004 134.936 595.824 135.44 595.824C135.944 595.824 136.388 596.004 136.772 596.364C137.18 596.724 137.384 597.168 137.384 597.696C137.384 598.248 137.18 598.704 136.772 599.064C136.388 599.4 135.944 599.568 135.44 599.568C134.936 599.568 134.468 599.388 134.036 599.028C133.628 598.668 133.424 598.224 133.424 597.696ZM142.816 590.136H146.164V618H142.816V590.136ZM158.869 618.36C157.165 618.36 155.701 618.024 154.477 617.352C153.253 616.656 152.305 615.72 151.633 614.544C150.985 613.344 150.661 611.976 150.661 610.44C150.661 608.976 151.033 607.644 151.777 606.444C152.521 605.244 153.517 604.284 154.765 603.564C156.013 602.844 157.405 602.484 158.941 602.484C160.909 602.484 162.541 603.06 163.837 604.212C165.133 605.364 166.009 606.948 166.465 608.964L154.189 613.284L153.397 611.304L163.477 607.632L162.757 608.1C162.469 607.308 161.989 606.624 161.317 606.048C160.645 605.448 159.769 605.148 158.689 605.148C157.777 605.148 156.961 605.376 156.241 605.832C155.521 606.264 154.957 606.864 154.549 607.632C154.141 608.4 153.937 609.276 153.937 610.26C153.937 611.292 154.153 612.204 154.585 612.996C155.017 613.764 155.605 614.376 156.349 614.832C157.117 615.264 157.981 615.48 158.941 615.48C159.589 615.48 160.213 615.36 160.813 615.12C161.437 614.88 162.013 614.568 162.541 614.184L164.089 616.668C163.345 617.172 162.505 617.58 161.569 617.892C160.657 618.204 159.757 618.36 158.869 618.36ZM170.66 603.096H174.008V618H170.66V603.096ZM170.408 597.696C170.408 597.168 170.612 596.724 171.02 596.364C171.452 596.004 171.92 595.824 172.424 595.824C172.928 595.824 173.372 596.004 173.756 596.364C174.164 596.724 174.368 597.168 174.368 597.696C174.368 598.248 174.164 598.704 173.756 599.064C173.372 599.4 172.928 599.568 172.424 599.568C171.92 599.568 171.452 599.388 171.02 599.028C170.612 598.668 170.408 598.224 170.408 597.696ZM182.789 603.096L183.113 607.416L182.933 606.84C183.317 605.928 183.869 605.16 184.589 604.536C185.333 603.888 186.101 603.396 186.893 603.06C187.709 602.7 188.417 602.52 189.017 602.52L188.837 605.832C187.709 605.76 186.713 605.976 185.849 606.48C185.009 606.984 184.337 607.656 183.833 608.496C183.353 609.336 183.113 610.236 183.113 611.196V618H179.801V603.096H182.789ZM191.407 610.404C191.407 608.916 191.755 607.572 192.451 606.372C193.171 605.172 194.155 604.224 195.403 603.528C196.651 602.832 198.067 602.484 199.651 602.484C201.283 602.484 202.711 602.832 203.935 603.528C205.159 604.224 206.107 605.172 206.779 606.372C207.451 607.572 207.787 608.916 207.787 610.404C207.787 611.892 207.451 613.248 206.779 614.472C206.107 615.672 205.147 616.62 203.899 617.316C202.675 618.012 201.247 618.36 199.615 618.36C198.031 618.36 196.615 618.036 195.367 617.388C194.143 616.716 193.171 615.792 192.451 614.616C191.755 613.416 191.407 612.012 191.407 610.404ZM194.755 610.44C194.755 611.4 194.971 612.276 195.403 613.068C195.835 613.836 196.411 614.448 197.131 614.904C197.875 615.36 198.691 615.588 199.579 615.588C200.515 615.588 201.343 615.36 202.063 614.904C202.807 614.448 203.383 613.836 203.791 613.068C204.199 612.276 204.403 611.4 204.403 610.44C204.403 609.48 204.199 608.616 203.791 607.848C203.383 607.056 202.807 606.432 202.063 605.976C201.343 605.496 200.515 605.256 199.579 605.256C198.667 605.256 197.839 605.496 197.095 605.976C196.375 606.456 195.799 607.092 195.367 607.884C194.959 608.652 194.755 609.504 194.755 610.44ZM229.903 618.36C228.511 618.36 227.239 618.06 226.087 617.46C224.959 616.86 224.059 615.984 223.387 614.832C222.739 613.656 222.415 612.228 222.415 610.548C222.415 608.892 222.763 607.464 223.459 606.264C224.155 605.04 225.079 604.104 226.231 603.456C227.407 602.808 228.691 602.484 230.083 602.484C231.475 602.484 232.651 602.808 233.611 603.456C234.571 604.08 235.303 604.824 235.807 605.688L235.591 606.264L235.915 603.096H239.011V618H235.663V614.112L236.023 614.976C235.927 615.216 235.711 615.528 235.375 615.912C235.063 616.272 234.631 616.644 234.079 617.028C233.551 617.412 232.939 617.736 232.243 618C231.547 618.24 230.767 618.36 229.903 618.36ZM230.803 615.588C231.643 615.588 232.399 615.432 233.071 615.12C233.743 614.808 234.295 614.376 234.727 613.824C235.183 613.248 235.495 612.564 235.663 611.772V608.856C235.471 608.136 235.135 607.512 234.655 606.984C234.175 606.432 233.599 606.012 232.927 605.724C232.255 605.412 231.511 605.256 230.695 605.256C229.807 605.256 228.991 605.472 228.247 605.904C227.503 606.336 226.903 606.936 226.447 607.704C226.015 608.472 225.799 609.372 225.799 610.404C225.799 611.364 226.027 612.24 226.483 613.032C226.939 613.824 227.551 614.448 228.319 614.904C229.087 615.36 229.915 615.588 230.803 615.588ZM243.509 610.404C243.509 608.916 243.857 607.572 244.553 606.372C245.273 605.172 246.257 604.224 247.505 603.528C248.753 602.832 250.169 602.484 251.753 602.484C253.385 602.484 254.813 602.832 256.037 603.528C257.261 604.224 258.209 605.172 258.881 606.372C259.553 607.572 259.889 608.916 259.889 610.404C259.889 611.892 259.553 613.248 258.881 614.472C258.209 615.672 257.249 616.62 256.001 617.316C254.777 618.012 253.349 618.36 251.717 618.36C250.133 618.36 248.717 618.036 247.469 617.388C246.245 616.716 245.273 615.792 244.553 614.616C243.857 613.416 243.509 612.012 243.509 610.404ZM246.857 610.44C246.857 611.4 247.073 612.276 247.505 613.068C247.937 613.836 248.513 614.448 249.233 614.904C249.977 615.36 250.793 615.588 251.681 615.588C252.617 615.588 253.445 615.36 254.165 614.904C254.909 614.448 255.485 613.836 255.893 613.068C256.301 612.276 256.505 611.4 256.505 610.44C256.505 609.48 256.301 608.616 255.893 607.848C255.485 607.056 254.909 606.432 254.165 605.976C253.445 605.496 252.617 605.256 251.681 605.256C250.769 605.256 249.941 605.496 249.197 605.976C248.477 606.456 247.901 607.092 247.469 607.884C247.061 608.652 246.857 609.504 246.857 610.44ZM279.988 618.288C278.932 618.288 277.9 618.108 276.892 617.748C275.908 617.364 275.092 616.8 274.444 616.056L275.848 614.112C276.472 614.712 277.108 615.168 277.756 615.48C278.428 615.768 279.088 615.912 279.736 615.912C280.216 615.912 280.66 615.852 281.068 615.732C281.476 615.612 281.8 615.42 282.04 615.156C282.304 614.868 282.436 614.484 282.436 614.004C282.436 613.476 282.256 613.056 281.896 612.744C281.56 612.432 281.116 612.18 280.564 611.988C280.036 611.796 279.472 611.616 278.872 611.448C277.648 611.04 276.712 610.476 276.064 609.756C275.416 609.036 275.092 608.16 275.092 607.128C275.092 606.336 275.284 605.604 275.668 604.932C276.076 604.236 276.664 603.672 277.432 603.24C278.224 602.808 279.196 602.592 280.348 602.592C281.38 602.592 282.304 602.724 283.12 602.988C283.936 603.228 284.704 603.636 285.424 604.212L284.092 606.3C283.66 605.844 283.144 605.508 282.544 605.292C281.944 605.076 281.404 604.956 280.924 604.932C280.516 604.908 280.12 604.968 279.736 605.112C279.376 605.256 279.076 605.46 278.836 605.724C278.596 605.988 278.476 606.3 278.476 606.66C278.476 607.164 278.644 607.572 278.98 607.884C279.316 608.196 279.748 608.448 280.276 608.64C280.828 608.808 281.368 608.988 281.896 609.18C282.64 609.396 283.3 609.684 283.876 610.044C284.452 610.404 284.908 610.848 285.244 611.376C285.604 611.904 285.784 612.564 285.784 613.356C285.784 614.244 285.568 615.072 285.136 615.84C284.728 616.584 284.092 617.184 283.228 617.64C282.388 618.072 281.308 618.288 279.988 618.288ZM297.385 618.36C295.681 618.36 294.217 618.024 292.993 617.352C291.769 616.656 290.821 615.72 290.149 614.544C289.501 613.344 289.177 611.976 289.177 610.44C289.177 608.976 289.549 607.644 290.293 606.444C291.037 605.244 292.033 604.284 293.281 603.564C294.529 602.844 295.921 602.484 297.457 602.484C299.425 602.484 301.057 603.06 302.353 604.212C303.649 605.364 304.525 606.948 304.981 608.964L292.705 613.284L291.913 611.304L301.993 607.632L301.273 608.1C300.985 607.308 300.505 606.624 299.833 606.048C299.161 605.448 298.285 605.148 297.205 605.148C296.293 605.148 295.477 605.376 294.757 605.832C294.037 606.264 293.473 606.864 293.065 607.632C292.657 608.4 292.453 609.276 292.453 610.26C292.453 611.292 292.669 612.204 293.101 612.996C293.533 613.764 294.121 614.376 294.865 614.832C295.633 615.264 296.497 615.48 297.457 615.48C298.105 615.48 298.729 615.36 299.329 615.12C299.953 614.88 300.529 614.568 301.057 614.184L302.605 616.668C301.861 617.172 301.021 617.58 300.085 617.892C299.173 618.204 298.273 618.36 297.385 618.36ZM313.892 618.576C312.548 618.576 311.432 618.168 310.544 617.352C309.68 616.512 309.224 615.432 309.176 614.112V603.096H312.524V612.924C312.572 613.74 312.8 614.4 313.208 614.904C313.64 615.408 314.312 615.672 315.224 615.696C316.064 615.696 316.808 615.456 317.456 614.976C318.128 614.472 318.668 613.8 319.076 612.96C319.484 612.096 319.688 611.124 319.688 610.044V603.096H323.036V618H319.976L319.688 614.328L319.868 614.976C319.58 615.672 319.136 616.296 318.536 616.848C317.96 617.376 317.276 617.796 316.484 618.108C315.692 618.42 314.828 618.576 313.892 618.576ZM340.219 618V590.136H343.495V606.552L343.423 605.94C343.927 604.956 344.695 604.14 345.727 603.492C346.783 602.844 348.019 602.52 349.435 602.52C350.851 602.52 352.003 602.94 352.891 603.78C353.803 604.596 354.271 605.664 354.295 606.984V618H350.911V608.172C350.887 607.356 350.647 606.696 350.191 606.192C349.759 605.664 349.075 605.4 348.139 605.4C347.275 605.4 346.495 605.652 345.799 606.156C345.103 606.636 344.551 607.296 344.143 608.136C343.759 608.976 343.567 609.936 343.567 611.016V618H340.219ZM366.309 618.36C364.917 618.36 363.645 618.06 362.493 617.46C361.365 616.86 360.465 615.984 359.793 614.832C359.145 613.656 358.821 612.228 358.821 610.548C358.821 608.892 359.169 607.464 359.865 606.264C360.561 605.04 361.485 604.104 362.637 603.456C363.813 602.808 365.097 602.484 366.489 602.484C367.881 602.484 369.057 602.808 370.017 603.456C370.977 604.08 371.709 604.824 372.213 605.688L371.997 606.264L372.321 603.096H375.417V618H372.069V614.112L372.429 614.976C372.333 615.216 372.117 615.528 371.781 615.912C371.469 616.272 371.037 616.644 370.485 617.028C369.957 617.412 369.345 617.736 368.649 618C367.953 618.24 367.173 618.36 366.309 618.36ZM367.209 615.588C368.049 615.588 368.805 615.432 369.477 615.12C370.149 614.808 370.701 614.376 371.133 613.824C371.589 613.248 371.901 612.564 372.069 611.772V608.856C371.877 608.136 371.541 607.512 371.061 606.984C370.581 606.432 370.005 606.012 369.333 605.724C368.661 605.412 367.917 605.256 367.101 605.256C366.213 605.256 365.397 605.472 364.653 605.904C363.909 606.336 363.309 606.936 362.853 607.704C362.421 608.472 362.205 609.372 362.205 610.404C362.205 611.364 362.433 612.24 362.889 613.032C363.345 613.824 363.957 614.448 364.725 614.904C365.493 615.36 366.321 615.588 367.209 615.588ZM390.283 618.36C388.915 618.36 387.703 618.06 386.647 617.46C385.615 616.86 384.787 616.104 384.163 615.192L384.559 614.148V618H381.211V590.136H384.523V606.516L384.415 605.256C385.015 604.44 385.867 603.78 386.971 603.276C388.099 602.748 389.347 602.484 390.715 602.484C392.059 602.484 393.283 602.808 394.387 603.456C395.491 604.104 396.367 605.016 397.015 606.192C397.687 607.344 398.023 608.724 398.023 610.332C398.023 612.012 397.663 613.452 396.943 614.652C396.247 615.852 395.311 616.776 394.135 617.424C392.959 618.048 391.675 618.36 390.283 618.36ZM389.599 615.516C390.559 615.516 391.423 615.288 392.191 614.832C392.959 614.376 393.559 613.764 393.991 612.996C394.423 612.204 394.639 611.304 394.639 610.296C394.639 609.336 394.411 608.472 393.955 607.704C393.523 606.912 392.923 606.288 392.155 605.832C391.411 605.376 390.559 605.148 389.599 605.148C388.783 605.148 388.027 605.304 387.331 605.616C386.635 605.928 386.047 606.36 385.567 606.912C385.087 607.44 384.751 608.064 384.559 608.784V611.772C384.751 612.492 385.075 613.14 385.531 613.716C385.987 614.268 386.563 614.712 387.259 615.048C387.955 615.36 388.735 615.516 389.599 615.516ZM402.551 603.096H405.899V618H402.551V603.096ZM402.299 597.696C402.299 597.168 402.503 596.724 402.911 596.364C403.343 596.004 403.811 595.824 404.315 595.824C404.819 595.824 405.263 596.004 405.647 596.364C406.055 596.724 406.259 597.168 406.259 597.696C406.259 598.248 406.055 598.704 405.647 599.064C405.263 599.4 404.819 599.568 404.315 599.568C403.811 599.568 403.343 599.388 402.911 599.028C402.503 598.668 402.299 598.224 402.299 597.696ZM413.131 596.544H416.479V603.168H420.583V605.796H416.479V618H413.131V605.796H410.395V603.168H413.131V596.544ZM430.821 618.36C429.429 618.36 428.157 618.06 427.005 617.46C425.877 616.86 424.977 615.984 424.305 614.832C423.657 613.656 423.333 612.228 423.333 610.548C423.333 608.892 423.681 607.464 424.377 606.264C425.073 605.04 425.997 604.104 427.149 603.456C428.325 602.808 429.609 602.484 431.001 602.484C432.393 602.484 433.569 602.808 434.529 603.456C435.489 604.08 436.221 604.824 436.725 605.688L436.509 606.264L436.833 603.096H439.929V618H436.581V614.112L436.941 614.976C436.845 615.216 436.629 615.528 436.293 615.912C435.981 616.272 435.549 616.644 434.997 617.028C434.469 617.412 433.857 617.736 433.161 618C432.465 618.24 431.685 618.36 430.821 618.36ZM431.721 615.588C432.561 615.588 433.317 615.432 433.989 615.12C434.661 614.808 435.213 614.376 435.645 613.824C436.101 613.248 436.413 612.564 436.581 611.772V608.856C436.389 608.136 436.053 607.512 435.573 606.984C435.093 606.432 434.517 606.012 433.845 605.724C433.173 605.412 432.429 605.256 431.613 605.256C430.725 605.256 429.909 605.472 429.165 605.904C428.421 606.336 427.821 606.936 427.365 607.704C426.933 608.472 426.717 609.372 426.717 610.404C426.717 611.364 426.945 612.24 427.401 613.032C427.857 613.824 428.469 614.448 429.237 614.904C430.005 615.36 430.833 615.588 431.721 615.588ZM447.163 596.544H450.511V603.168H454.615V605.796H450.511V618H447.163V605.796H444.427V603.168H447.163V596.544ZM473.039 603.096L473.327 606.732L473.183 606.156C473.663 605.052 474.443 604.176 475.523 603.528C476.603 602.856 477.851 602.52 479.267 602.52C480.683 602.52 481.835 602.94 482.723 603.78C483.635 604.596 484.103 605.664 484.127 606.984V618H480.743V608.172C480.719 607.356 480.479 606.696 480.023 606.192C479.591 605.664 478.907 605.4 477.971 605.4C477.107 605.4 476.327 605.64 475.631 606.12C474.935 606.6 474.383 607.26 473.975 608.1C473.591 608.94 473.399 609.912 473.399 611.016V618H470.051V603.096H473.039ZM496.141 618.36C494.749 618.36 493.477 618.06 492.325 617.46C491.197 616.86 490.297 615.984 489.625 614.832C488.977 613.656 488.653 612.228 488.653 610.548C488.653 608.892 489.001 607.464 489.697 606.264C490.393 605.04 491.317 604.104 492.469 603.456C493.645 602.808 494.929 602.484 496.321 602.484C497.713 602.484 498.889 602.808 499.849 603.456C500.809 604.08 501.541 604.824 502.045 605.688L501.829 606.264L502.153 603.096H505.249V618H501.901V614.112L502.261 614.976C502.165 615.216 501.949 615.528 501.613 615.912C501.301 616.272 500.869 616.644 500.317 617.028C499.789 617.412 499.177 617.736 498.481 618C497.785 618.24 497.005 618.36 496.141 618.36ZM497.041 615.588C497.881 615.588 498.637 615.432 499.309 615.12C499.981 614.808 500.533 614.376 500.965 613.824C501.421 613.248 501.733 612.564 501.901 611.772V608.856C501.709 608.136 501.373 607.512 500.893 606.984C500.413 606.432 499.837 606.012 499.165 605.724C498.493 605.412 497.749 605.256 496.933 605.256C496.045 605.256 495.229 605.472 494.485 605.904C493.741 606.336 493.141 606.936 492.685 607.704C492.253 608.472 492.037 609.372 492.037 610.404C492.037 611.364 492.265 612.24 492.721 613.032C493.177 613.824 493.789 614.448 494.557 614.904C495.325 615.36 496.153 615.588 497.041 615.588ZM512.483 596.544H515.831V603.168H519.935V605.796H515.831V618H512.483V605.796H509.747V603.168H512.483V596.544ZM528.696 618.576C527.352 618.576 526.236 618.168 525.348 617.352C524.484 616.512 524.028 615.432 523.98 614.112V603.096H527.328V612.924C527.376 613.74 527.604 614.4 528.012 614.904C528.444 615.408 529.116 615.672 530.028 615.696C530.868 615.696 531.612 615.456 532.26 614.976C532.932 614.472 533.472 613.8 533.88 612.96C534.288 612.096 534.492 611.124 534.492 610.044V603.096H537.84V618H534.78L534.492 614.328L534.672 614.976C534.384 615.672 533.94 616.296 533.34 616.848C532.764 617.376 532.08 617.796 531.288 618.108C530.496 618.42 529.632 618.576 528.696 618.576ZM546.621 603.096L546.945 607.416L546.765 606.84C547.149 605.928 547.701 605.16 548.421 604.536C549.165 603.888 549.933 603.396 550.725 603.06C551.541 602.7 552.249 602.52 552.849 602.52L552.669 605.832C551.541 605.76 550.545 605.976 549.681 606.48C548.841 606.984 548.169 607.656 547.665 608.496C547.185 609.336 546.945 610.236 546.945 611.196V618H543.633V603.096H546.621ZM563.008 618.36C561.616 618.36 560.344 618.06 559.192 617.46C558.064 616.86 557.164 615.984 556.492 614.832C555.844 613.656 555.52 612.228 555.52 610.548C555.52 608.892 555.868 607.464 556.564 606.264C557.26 605.04 558.184 604.104 559.336 603.456C560.512 602.808 561.796 602.484 563.188 602.484C564.58 602.484 565.756 602.808 566.716 603.456C567.676 604.08 568.408 604.824 568.912 605.688L568.696 606.264L569.02 603.096H572.116V618H568.768V614.112L569.128 614.976C569.032 615.216 568.816 615.528 568.48 615.912C568.168 616.272 567.736 616.644 567.184 617.028C566.656 617.412 566.044 617.736 565.348 618C564.652 618.24 563.872 618.36 563.008 618.36ZM563.908 615.588C564.748 615.588 565.504 615.432 566.176 615.12C566.848 614.808 567.4 614.376 567.832 613.824C568.288 613.248 568.6 612.564 568.768 611.772V608.856C568.576 608.136 568.24 607.512 567.76 606.984C567.28 606.432 566.704 606.012 566.032 605.724C565.36 605.412 564.616 605.256 563.8 605.256C562.912 605.256 562.096 605.472 561.352 605.904C560.608 606.336 560.008 606.936 559.552 607.704C559.12 608.472 558.904 609.372 558.904 610.404C558.904 611.364 559.132 612.24 559.588 613.032C560.044 613.824 560.656 614.448 561.424 614.904C562.192 615.36 563.02 615.588 563.908 615.588ZM577.91 590.136H581.258V618H577.91V590.136ZM601.429 603.096L601.717 606.732L601.573 606.156C602.053 605.052 602.833 604.176 603.913 603.528C604.993 602.856 606.241 602.52 607.657 602.52C609.073 602.52 610.225 602.94 611.113 603.78C612.025 604.596 612.493 605.664 612.517 606.984V618H609.133V608.172C609.109 607.356 608.869 606.696 608.413 606.192C607.981 605.664 607.297 605.4 606.361 605.4C605.497 605.4 604.717 605.64 604.021 606.12C603.325 606.6 602.773 607.26 602.365 608.1C601.981 608.94 601.789 609.912 601.789 611.016V618H598.441V603.096H601.429ZM624.532 618.36C623.14 618.36 621.868 618.06 620.716 617.46C619.588 616.86 618.688 615.984 618.016 614.832C617.368 613.656 617.044 612.228 617.044 610.548C617.044 608.892 617.392 607.464 618.088 606.264C618.784 605.04 619.708 604.104 620.86 603.456C622.036 602.808 623.32 602.484 624.712 602.484C626.104 602.484 627.28 602.808 628.24 603.456C629.2 604.08 629.932 604.824 630.436 605.688L630.22 606.264L630.544 603.096H633.64V618H630.292V614.112L630.652 614.976C630.556 615.216 630.34 615.528 630.004 615.912C629.692 616.272 629.26 616.644 628.708 617.028C628.18 617.412 627.568 617.736 626.872 618C626.176 618.24 625.396 618.36 624.532 618.36ZM625.432 615.588C626.272 615.588 627.028 615.432 627.7 615.12C628.372 614.808 628.924 614.376 629.356 613.824C629.812 613.248 630.124 612.564 630.292 611.772V608.856C630.1 608.136 629.764 607.512 629.284 606.984C628.804 606.432 628.228 606.012 627.556 605.724C626.884 605.412 626.14 605.256 625.324 605.256C624.436 605.256 623.62 605.472 622.876 605.904C622.132 606.336 621.532 606.936 621.076 607.704C620.644 608.472 620.428 609.372 620.428 610.404C620.428 611.364 620.656 612.24 621.112 613.032C621.568 613.824 622.18 614.448 622.948 614.904C623.716 615.36 624.544 615.588 625.432 615.588ZM216.656 654L228.032 626.892H228.248L239.588 654H235.592L227.096 632.364L229.58 630.744L220.076 654H216.656ZM223.316 644.136H233L234.152 647.16H222.308L223.316 644.136ZM233.684 621.132L229.112 625.956H226.988L229.976 621.132H233.684ZM244.886 654V642.084H242.33V639.096H244.886V632.796C244.886 630.636 245.366 628.98 246.326 627.828C247.31 626.676 248.75 626.1 250.646 626.1C251.15 626.1 251.702 626.172 252.302 626.316C252.926 626.46 253.466 626.7 253.922 627.036L252.518 629.448C252.302 629.232 252.062 629.088 251.798 629.016C251.534 628.92 251.27 628.872 251.006 628.872C250.118 628.872 249.434 629.172 248.954 629.772C248.474 630.372 248.234 631.392 248.234 632.832V639.096H252.95V642.084H248.234V654H244.886ZM260.291 639.096L260.615 643.416L260.435 642.84C260.819 641.928 261.371 641.16 262.091 640.536C262.835 639.888 263.603 639.396 264.395 639.06C265.211 638.7 265.919 638.52 266.519 638.52L266.339 641.832C265.211 641.76 264.215 641.976 263.351 642.48C262.511 642.984 261.839 643.656 261.335 644.496C260.855 645.336 260.615 646.236 260.615 647.196V654H257.303V639.096H260.291ZM270.838 639.096H274.186V654H270.838V639.096ZM270.586 633.696C270.586 633.168 270.79 632.724 271.198 632.364C271.63 632.004 272.098 631.824 272.602 631.824C273.106 631.824 273.55 632.004 273.934 632.364C274.342 632.724 274.546 633.168 274.546 633.696C274.546 634.248 274.342 634.704 273.934 635.064C273.55 635.4 273.106 635.568 272.602 635.568C272.098 635.568 271.63 635.388 271.198 635.028C270.79 634.668 270.586 634.224 270.586 633.696ZM292.075 652.632C291.403 653.16 290.599 653.58 289.663 653.892C288.727 654.204 287.791 654.36 286.855 654.36C285.223 654.36 283.795 654.036 282.571 653.388C281.347 652.74 280.387 651.84 279.691 650.688C279.019 649.512 278.683 648.132 278.683 646.548C278.683 644.964 279.043 643.584 279.763 642.408C280.507 641.232 281.467 640.332 282.643 639.708C283.843 639.06 285.127 638.736 286.495 638.736C287.695 638.736 288.763 638.904 289.699 639.24C290.659 639.576 291.475 640.032 292.147 640.608L290.491 642.768C290.059 642.432 289.531 642.132 288.907 641.868C288.283 641.604 287.575 641.472 286.783 641.472C285.919 641.472 285.115 641.7 284.371 642.156C283.651 642.588 283.075 643.188 282.643 643.956C282.235 644.724 282.031 645.588 282.031 646.548C282.031 647.46 282.247 648.312 282.679 649.104C283.111 649.872 283.711 650.484 284.479 650.94C285.247 651.372 286.123 651.588 287.107 651.588C287.755 651.588 288.343 651.492 288.871 651.3C289.423 651.108 289.915 650.844 290.347 650.508L292.075 652.632ZM302.588 654.36C301.196 654.36 299.924 654.06 298.772 653.46C297.644 652.86 296.744 651.984 296.072 650.832C295.424 649.656 295.1 648.228 295.1 646.548C295.1 644.892 295.448 643.464 296.144 642.264C296.84 641.04 297.764 640.104 298.916 639.456C300.092 638.808 301.376 638.484 302.768 638.484C304.16 638.484 305.336 638.808 306.296 639.456C307.256 640.08 307.988 640.824 308.492 641.688L308.276 642.264L308.6 639.096H311.696V654H308.348V650.112L308.708 650.976C308.612 651.216 308.396 651.528 308.06 651.912C307.748 652.272 307.316 652.644 306.764 653.028C306.236 653.412 305.624 653.736 304.928 654C304.232 654.24 303.452 654.36 302.588 654.36ZM303.488 651.588C304.328 651.588 305.084 651.432 305.756 651.12C306.428 650.808 306.98 650.376 307.412 649.824C307.868 649.248 308.18 648.564 308.348 647.772V644.856C308.156 644.136 307.82 643.512 307.34 642.984C306.86 642.432 306.284 642.012 305.612 641.724C304.94 641.412 304.196 641.256 303.38 641.256C302.492 641.256 301.676 641.472 300.932 641.904C300.188 642.336 299.588 642.936 299.132 643.704C298.7 644.472 298.484 645.372 298.484 646.404C298.484 647.364 298.712 648.24 299.168 649.032C299.624 649.824 300.236 650.448 301.004 650.904C301.772 651.36 302.6 651.588 303.488 651.588ZM327.585 646.404C327.585 644.916 327.933 643.572 328.629 642.372C329.349 641.172 330.333 640.224 331.581 639.528C332.829 638.832 334.245 638.484 335.829 638.484C337.461 638.484 338.889 638.832 340.113 639.528C341.337 640.224 342.285 641.172 342.957 642.372C343.629 643.572 343.965 644.916 343.965 646.404C343.965 647.892 343.629 649.248 342.957 650.472C342.285 651.672 341.325 652.62 340.077 653.316C338.853 654.012 337.425 654.36 335.793 654.36C334.209 654.36 332.793 654.036 331.545 653.388C330.321 652.716 329.349 651.792 328.629 650.616C327.933 649.416 327.585 648.012 327.585 646.404ZM330.933 646.44C330.933 647.4 331.149 648.276 331.581 649.068C332.013 649.836 332.589 650.448 333.309 650.904C334.053 651.36 334.869 651.588 335.757 651.588C336.693 651.588 337.521 651.36 338.241 650.904C338.985 650.448 339.561 649.836 339.969 649.068C340.377 648.276 340.581 647.4 340.581 646.44C340.581 645.48 340.377 644.616 339.969 643.848C339.561 643.056 338.985 642.432 338.241 641.976C337.521 641.496 336.693 641.256 335.757 641.256C334.845 641.256 334.017 641.496 333.273 641.976C332.553 642.456 331.977 643.092 331.545 643.884C331.137 644.652 330.933 645.504 330.933 646.44ZM360.594 652.632C359.922 653.16 359.118 653.58 358.182 653.892C357.246 654.204 356.31 654.36 355.374 654.36C353.742 654.36 352.314 654.036 351.09 653.388C349.866 652.74 348.906 651.84 348.21 650.688C347.538 649.512 347.202 648.132 347.202 646.548C347.202 644.964 347.562 643.584 348.282 642.408C349.026 641.232 349.986 640.332 351.162 639.708C352.362 639.06 353.646 638.736 355.014 638.736C356.214 638.736 357.282 638.904 358.218 639.24C359.178 639.576 359.994 640.032 360.666 640.608L359.01 642.768C358.578 642.432 358.05 642.132 357.426 641.868C356.802 641.604 356.094 641.472 355.302 641.472C354.438 641.472 353.634 641.7 352.89 642.156C352.17 642.588 351.594 643.188 351.162 643.956C350.754 644.724 350.55 645.588 350.55 646.548C350.55 647.46 350.766 648.312 351.198 649.104C351.63 649.872 352.23 650.484 352.998 650.94C353.766 651.372 354.642 651.588 355.626 651.588C356.274 651.588 356.862 651.492 357.39 651.3C357.942 651.108 358.434 650.844 358.866 650.508L360.594 652.632ZM364.916 639.096H368.264V654H364.916V639.096ZM364.664 633.696C364.664 633.168 364.868 632.724 365.276 632.364C365.708 632.004 366.176 631.824 366.68 631.824C367.184 631.824 367.628 632.004 368.012 632.364C368.42 632.724 368.624 633.168 368.624 633.696C368.624 634.248 368.42 634.704 368.012 635.064C367.628 635.4 367.184 635.568 366.68 635.568C366.176 635.568 365.708 635.388 365.276 635.028C364.868 634.668 364.664 634.224 364.664 633.696ZM380.105 654.36C378.737 654.36 377.489 654.036 376.361 653.388C375.257 652.716 374.381 651.78 373.733 650.58C373.085 649.356 372.761 647.952 372.761 646.368C372.761 644.712 373.097 643.296 373.769 642.12C374.465 640.944 375.401 640.044 376.577 639.42C377.753 638.796 379.073 638.484 380.537 638.484C381.713 638.484 382.829 638.736 383.885 639.24C384.965 639.744 385.805 640.44 386.405 641.328L386.261 642.516V626.136H389.573V654H386.225V650.292L386.585 651.228C385.889 652.14 384.989 652.896 383.885 653.496C382.781 654.072 381.521 654.36 380.105 654.36ZM381.149 651.516C382.037 651.516 382.829 651.36 383.525 651.048C384.221 650.712 384.797 650.256 385.253 649.68C385.709 649.104 386.033 648.42 386.225 647.628V644.82C386.033 644.1 385.685 643.476 385.181 642.948C384.701 642.396 384.113 641.964 383.417 641.652C382.745 641.316 381.989 641.148 381.149 641.148C380.237 641.148 379.397 641.376 378.629 641.832C377.885 642.264 377.285 642.864 376.829 643.632C376.373 644.4 376.145 645.288 376.145 646.296C376.145 647.28 376.373 648.168 376.829 648.96C377.285 649.728 377.897 650.352 378.665 650.832C379.433 651.288 380.261 651.516 381.149 651.516ZM402.308 654.36C400.604 654.36 399.14 654.024 397.916 653.352C396.692 652.656 395.744 651.72 395.072 650.544C394.424 649.344 394.1 647.976 394.1 646.44C394.1 644.976 394.472 643.644 395.216 642.444C395.96 641.244 396.956 640.284 398.204 639.564C399.452 638.844 400.844 638.484 402.38 638.484C404.348 638.484 405.98 639.06 407.276 640.212C408.572 641.364 409.448 642.948 409.904 644.964L397.628 649.284L396.836 647.304L406.916 643.632L406.196 644.1C405.908 643.308 405.428 642.624 404.756 642.048C404.084 641.448 403.208 641.148 402.128 641.148C401.216 641.148 400.4 641.376 399.68 641.832C398.96 642.264 398.396 642.864 397.988 643.632C397.58 644.4 397.376 645.276 397.376 646.26C397.376 647.292 397.592 648.204 398.024 648.996C398.456 649.764 399.044 650.376 399.788 650.832C400.556 651.264 401.42 651.48 402.38 651.48C403.028 651.48 403.652 651.36 404.252 651.12C404.876 650.88 405.452 650.568 405.98 650.184L407.528 652.668C406.784 653.172 405.944 653.58 405.008 653.892C404.096 654.204 403.196 654.36 402.308 654.36ZM417.088 639.096L417.376 642.732L417.232 642.156C417.712 641.052 418.492 640.176 419.572 639.528C420.652 638.856 421.9 638.52 423.316 638.52C424.732 638.52 425.884 638.94 426.772 639.78C427.684 640.596 428.152 641.664 428.176 642.984V654H424.792V644.172C424.768 643.356 424.528 642.696 424.072 642.192C423.64 641.664 422.956 641.4 422.02 641.4C421.156 641.4 420.376 641.64 419.68 642.12C418.984 642.6 418.432 643.26 418.024 644.1C417.64 644.94 417.448 645.912 417.448 647.016V654H414.1V639.096H417.088ZM435.438 632.544H438.786V639.168H442.89V641.796H438.786V654H435.438V641.796H432.702V639.168H435.438V632.544ZM453.128 654.36C451.736 654.36 450.464 654.06 449.312 653.46C448.184 652.86 447.284 651.984 446.612 650.832C445.964 649.656 445.64 648.228 445.64 646.548C445.64 644.892 445.988 643.464 446.684 642.264C447.38 641.04 448.304 640.104 449.456 639.456C450.632 638.808 451.916 638.484 453.308 638.484C454.7 638.484 455.876 638.808 456.836 639.456C457.796 640.08 458.528 640.824 459.032 641.688L458.816 642.264L459.14 639.096H462.236V654H458.888V650.112L459.248 650.976C459.152 651.216 458.936 651.528 458.6 651.912C458.288 652.272 457.856 652.644 457.304 653.028C456.776 653.412 456.164 653.736 455.468 654C454.772 654.24 453.992 654.36 453.128 654.36ZM454.028 651.588C454.868 651.588 455.624 651.432 456.296 651.12C456.968 650.808 457.52 650.376 457.952 649.824C458.408 649.248 458.72 648.564 458.888 647.772V644.856C458.696 644.136 458.36 643.512 457.88 642.984C457.4 642.432 456.824 642.012 456.152 641.724C455.48 641.412 454.736 641.256 453.92 641.256C453.032 641.256 452.216 641.472 451.472 641.904C450.728 642.336 450.128 642.936 449.672 643.704C449.24 644.472 449.024 645.372 449.024 646.404C449.024 647.364 449.252 648.24 449.708 649.032C450.164 649.824 450.776 650.448 451.544 650.904C452.312 651.36 453.14 651.588 454.028 651.588ZM468.029 626.136H471.377V654H468.029V626.136ZM476.306 626.676H479.33V647.268H476.306V626.676ZM477.926 653.856C477.302 653.856 476.786 653.676 476.378 653.316C475.97 652.956 475.766 652.5 475.766 651.948C475.766 651.396 475.97 650.94 476.378 650.58C476.786 650.196 477.302 650.004 477.926 650.004C478.526 650.004 479.018 650.196 479.402 650.58C479.81 650.94 480.014 651.396 480.014 651.948C480.014 652.5 479.81 652.956 479.402 653.316C479.018 653.676 478.526 653.856 477.926 653.856ZM277.623 711.024H280.683V716.136H285.687V719.052H280.683V724.164H277.623V719.052H272.583V716.136H277.623V711.024ZM298.064 726.288C296.792 726.288 295.568 726.06 294.392 725.604C293.24 725.148 292.304 724.56 291.584 723.84L293.456 721.14C293.936 721.692 294.572 722.136 295.364 722.472C296.18 722.808 296.984 722.976 297.776 722.976C298.664 722.976 299.444 722.784 300.116 722.4C300.812 721.992 301.352 721.452 301.736 720.78C302.12 720.084 302.312 719.292 302.312 718.404C302.312 717.444 302.132 716.592 301.772 715.848C301.436 715.104 300.92 714.528 300.224 714.12C299.552 713.688 298.7 713.472 297.668 713.472C296.828 713.472 296.048 713.592 295.328 713.832C294.608 714.048 293.864 714.384 293.096 714.84H293.06V702.312H304.4V705.66H296.084V711.708L295.616 710.988C296.024 710.844 296.48 710.736 296.984 710.664C297.512 710.568 298.016 710.52 298.496 710.52C300.104 710.52 301.448 710.88 302.528 711.6C303.632 712.296 304.46 713.232 305.012 714.408C305.588 715.584 305.876 716.88 305.876 718.296C305.876 719.784 305.54 721.14 304.868 722.364C304.196 723.564 303.272 724.524 302.096 725.244C300.92 725.94 299.576 726.288 298.064 726.288ZM331.179 726.36C330.051 726.36 328.959 726.096 327.903 725.568C326.871 725.04 326.067 724.332 325.491 723.444L325.707 722.4V733.164H322.395V710.88H325.275L325.743 714.696L325.383 713.652C326.103 712.74 327.015 711.984 328.119 711.384C329.223 710.784 330.459 710.484 331.827 710.484C333.219 710.484 334.467 710.82 335.571 711.492C336.699 712.164 337.587 713.1 338.235 714.3C338.883 715.5 339.207 716.904 339.207 718.512C339.207 720.12 338.859 721.512 338.163 722.688C337.467 723.864 336.507 724.776 335.283 725.424C334.083 726.048 332.715 726.36 331.179 726.36ZM330.531 723.696C331.491 723.696 332.367 723.48 333.159 723.048C333.975 722.592 334.623 721.98 335.103 721.212C335.583 720.42 335.823 719.532 335.823 718.548C335.823 717.54 335.595 716.652 335.139 715.884C334.683 715.092 334.071 714.468 333.303 714.012C332.559 713.556 331.719 713.328 330.783 713.328C329.919 713.328 329.139 713.496 328.443 713.832C327.747 714.168 327.171 714.636 326.715 715.236C326.259 715.812 325.935 716.484 325.743 717.252V719.736C325.863 720.504 326.151 721.188 326.607 721.788C327.063 722.388 327.627 722.856 328.299 723.192C328.995 723.528 329.739 723.696 330.531 723.696ZM342.438 718.404C342.438 716.916 342.786 715.572 343.482 714.372C344.202 713.172 345.186 712.224 346.434 711.528C347.682 710.832 349.098 710.484 350.682 710.484C352.314 710.484 353.742 710.832 354.966 711.528C356.19 712.224 357.138 713.172 357.81 714.372C358.482 715.572 358.818 716.916 358.818 718.404C358.818 719.892 358.482 721.248 357.81 722.472C357.138 723.672 356.178 724.62 354.93 725.316C353.706 726.012 352.278 726.36 350.646 726.36C349.062 726.36 347.646 726.036 346.398 725.388C345.174 724.716 344.202 723.792 343.482 722.616C342.786 721.416 342.438 720.012 342.438 718.404ZM345.786 718.44C345.786 719.4 346.002 720.276 346.434 721.068C346.866 721.836 347.442 722.448 348.162 722.904C348.906 723.36 349.722 723.588 350.61 723.588C351.546 723.588 352.374 723.36 353.094 722.904C353.838 722.448 354.414 721.836 354.822 721.068C355.23 720.276 355.434 719.4 355.434 718.44C355.434 717.48 355.23 716.616 354.822 715.848C354.414 715.056 353.838 714.432 353.094 713.976C352.374 713.496 351.546 713.256 350.61 713.256C349.698 713.256 348.87 713.496 348.126 713.976C347.406 714.456 346.83 715.092 346.398 715.884C345.99 716.652 345.786 717.504 345.786 718.44ZM366.34 711.096L366.628 714.732L366.484 714.156C366.964 713.052 367.744 712.176 368.824 711.528C369.904 710.856 371.152 710.52 372.568 710.52C373.984 710.52 375.136 710.94 376.024 711.78C376.936 712.596 377.404 713.664 377.428 714.984V726H374.044V716.172C374.02 715.356 373.78 714.696 373.324 714.192C372.892 713.664 372.208 713.4 371.272 713.4C370.408 713.4 369.628 713.64 368.932 714.12C368.236 714.6 367.684 715.26 367.276 716.1C366.892 716.94 366.7 717.912 366.7 719.016V726H363.352V711.096H366.34ZM384.69 704.544H388.038V711.168H392.142V713.796H388.038V726H384.69V713.796H381.954V711.168H384.69V704.544ZM394.891 718.404C394.891 716.916 395.239 715.572 395.935 714.372C396.655 713.172 397.639 712.224 398.887 711.528C400.135 710.832 401.551 710.484 403.135 710.484C404.767 710.484 406.195 710.832 407.419 711.528C408.643 712.224 409.591 713.172 410.263 714.372C410.935 715.572 411.271 716.916 411.271 718.404C411.271 719.892 410.935 721.248 410.263 722.472C409.591 723.672 408.631 724.62 407.383 725.316C406.159 726.012 404.731 726.36 403.099 726.36C401.515 726.36 400.099 726.036 398.851 725.388C397.627 724.716 396.655 723.792 395.935 722.616C395.239 721.416 394.891 720.012 394.891 718.404ZM398.239 718.44C398.239 719.4 398.455 720.276 398.887 721.068C399.319 721.836 399.895 722.448 400.615 722.904C401.359 723.36 402.175 723.588 403.063 723.588C403.999 723.588 404.827 723.36 405.547 722.904C406.291 722.448 406.867 721.836 407.275 721.068C407.683 720.276 407.887 719.4 407.887 718.44C407.887 717.48 407.683 716.616 407.275 715.848C406.867 715.056 406.291 714.432 405.547 713.976C404.827 713.496 403.999 713.256 403.063 713.256C402.151 713.256 401.323 713.496 400.579 713.976C399.859 714.456 399.283 715.092 398.851 715.884C398.443 716.652 398.239 717.504 398.239 718.44ZM419.981 726.288C418.925 726.288 417.893 726.108 416.885 725.748C415.901 725.364 415.085 724.8 414.437 724.056L415.841 722.112C416.465 722.712 417.101 723.168 417.749 723.48C418.421 723.768 419.081 723.912 419.729 723.912C420.209 723.912 420.653 723.852 421.061 723.732C421.469 723.612 421.793 723.42 422.033 723.156C422.297 722.868 422.429 722.484 422.429 722.004C422.429 721.476 422.249 721.056 421.889 720.744C421.553 720.432 421.109 720.18 420.557 719.988C420.029 719.796 419.465 719.616 418.865 719.448C417.641 719.04 416.705 718.476 416.057 717.756C415.409 717.036 415.085 716.16 415.085 715.128C415.085 714.336 415.277 713.604 415.661 712.932C416.069 712.236 416.657 711.672 417.425 711.24C418.217 710.808 419.189 710.592 420.341 710.592C421.373 710.592 422.297 710.724 423.113 710.988C423.929 711.228 424.697 711.636 425.417 712.212L424.085 714.3C423.653 713.844 423.137 713.508 422.537 713.292C421.937 713.076 421.397 712.956 420.917 712.932C420.509 712.908 420.113 712.968 419.729 713.112C419.369 713.256 419.069 713.46 418.829 713.724C418.589 713.988 418.469 714.3 418.469 714.66C418.469 715.164 418.637 715.572 418.973 715.884C419.309 716.196 419.741 716.448 420.269 716.64C420.821 716.808 421.361 716.988 421.889 717.18C422.633 717.396 423.293 717.684 423.869 718.044C424.445 718.404 424.901 718.848 425.237 719.376C425.597 719.904 425.777 720.564 425.777 721.356C425.777 722.244 425.561 723.072 425.129 723.84C424.721 724.584 424.085 725.184 423.221 725.64C422.381 726.072 421.301 726.288 419.981 726.288Z" fill="black"/>
<path d="M217.343 516.92C217.343 515.304 217.535 513.792 217.919 512.384C218.303 510.976 218.799 509.72 219.407 508.616C220.031 507.512 220.679 506.6 221.351 505.88L223.103 506.864C222.479 507.584 221.903 508.44 221.375 509.432C220.863 510.424 220.447 511.552 220.127 512.816C219.823 514.08 219.671 515.456 219.671 516.944C219.671 518.432 219.823 519.808 220.127 521.072C220.447 522.32 220.863 523.432 221.375 524.408C221.903 525.4 222.479 526.256 223.103 526.976L221.351 527.984C220.679 527.264 220.031 526.344 219.407 525.224C218.799 524.12 218.303 522.872 217.919 521.48C217.535 520.072 217.343 518.552 217.343 516.92ZM240.798 506.648V524H238.494V516.392H229.398V524H227.07V506.648H229.398V514.184H238.494V506.648H240.798ZM249.853 524.24C248.717 524.24 247.741 524.016 246.925 523.568C246.109 523.104 245.477 522.48 245.029 521.696C244.597 520.896 244.381 519.984 244.381 518.96C244.381 517.984 244.629 517.096 245.125 516.296C245.621 515.496 246.285 514.856 247.117 514.376C247.949 513.896 248.877 513.656 249.901 513.656C251.213 513.656 252.301 514.04 253.165 514.808C254.029 515.576 254.613 516.632 254.917 517.976L246.733 520.856L246.205 519.536L252.925 517.088L252.445 517.4C252.253 516.872 251.933 516.416 251.485 516.032C251.037 515.632 250.453 515.432 249.733 515.432C249.125 515.432 248.581 515.584 248.101 515.888C247.621 516.176 247.245 516.576 246.973 517.088C246.701 517.6 246.565 518.184 246.565 518.84C246.565 519.528 246.709 520.136 246.997 520.664C247.285 521.176 247.677 521.584 248.173 521.888C248.685 522.176 249.261 522.32 249.901 522.32C250.333 522.32 250.749 522.24 251.149 522.08C251.565 521.92 251.949 521.712 252.301 521.456L253.333 523.112C252.837 523.448 252.277 523.72 251.653 523.928C251.045 524.136 250.445 524.24 249.853 524.24ZM259.706 514.064L259.898 516.296L259.802 516.104C260.17 515.352 260.69 514.76 261.362 514.328C262.05 513.896 262.834 513.68 263.714 513.68C264.274 513.68 264.77 513.768 265.202 513.944C265.634 514.12 265.986 514.376 266.258 514.712C266.546 515.032 266.73 515.432 266.81 515.912L266.69 515.984C267.074 515.264 267.602 514.704 268.274 514.304C268.962 513.888 269.682 513.68 270.434 513.68C271.41 513.68 272.178 513.96 272.738 514.52C273.314 515.064 273.61 515.776 273.626 516.656V524H271.394V517.448C271.378 516.936 271.25 516.512 271.01 516.176C270.786 515.824 270.386 515.632 269.81 515.6C269.234 515.6 268.714 515.776 268.25 516.128C267.802 516.48 267.45 516.936 267.194 517.496C266.938 518.04 266.802 518.632 266.786 519.272V524H264.554V517.448C264.538 516.936 264.402 516.512 264.146 516.176C263.906 515.824 263.498 515.632 262.922 515.6C262.33 515.6 261.81 515.776 261.362 516.128C260.914 516.48 260.562 516.936 260.306 517.496C260.066 518.056 259.946 518.656 259.946 519.296V524H257.714V514.064H259.706ZM277.518 514.064H279.75V524H277.518V514.064ZM277.35 510.464C277.35 510.112 277.486 509.816 277.758 509.576C278.046 509.336 278.358 509.216 278.694 509.216C279.03 509.216 279.326 509.336 279.582 509.576C279.854 509.816 279.99 510.112 279.99 510.464C279.99 510.832 279.854 511.136 279.582 511.376C279.326 511.6 279.03 511.712 278.694 511.712C278.358 511.712 278.046 511.592 277.758 511.352C277.486 511.112 277.35 510.816 277.35 510.464ZM287.644 524.24C286.732 524.24 285.9 524.024 285.148 523.592C284.412 523.144 283.828 522.52 283.396 521.72C282.964 520.904 282.748 519.968 282.748 518.912C282.748 517.808 282.972 516.864 283.42 516.08C283.884 515.296 284.508 514.696 285.292 514.28C286.076 513.864 286.956 513.656 287.932 513.656C288.716 513.656 289.46 513.824 290.164 514.16C290.884 514.496 291.444 514.96 291.844 515.552L291.748 516.344V505.424H293.956V524H291.724V521.528L291.964 522.152C291.5 522.76 290.9 523.264 290.164 523.664C289.428 524.048 288.588 524.24 287.644 524.24ZM288.34 522.344C288.932 522.344 289.46 522.24 289.924 522.032C290.388 521.808 290.772 521.504 291.076 521.12C291.38 520.736 291.596 520.28 291.724 519.752V517.88C291.596 517.4 291.364 516.984 291.028 516.632C290.708 516.264 290.316 515.976 289.852 515.768C289.404 515.544 288.9 515.432 288.34 515.432C287.732 515.432 287.172 515.584 286.66 515.888C286.164 516.176 285.764 516.576 285.46 517.088C285.156 517.6 285.004 518.192 285.004 518.864C285.004 519.52 285.156 520.112 285.46 520.64C285.764 521.152 286.172 521.568 286.684 521.888C287.196 522.192 287.748 522.344 288.34 522.344ZM301.967 524.24C301.039 524.24 300.191 524.04 299.423 523.64C298.671 523.24 298.071 522.656 297.623 521.888C297.191 521.104 296.975 520.152 296.975 519.032C296.975 517.928 297.207 516.976 297.671 516.176C298.135 515.36 298.751 514.736 299.519 514.304C300.303 513.872 301.159 513.656 302.087 513.656C303.015 513.656 303.799 513.872 304.439 514.304C305.079 514.72 305.567 515.216 305.903 515.792L305.759 516.176L305.975 514.064H308.039V524H305.807V521.408L306.047 521.984C305.983 522.144 305.839 522.352 305.615 522.608C305.407 522.848 305.119 523.096 304.751 523.352C304.399 523.608 303.991 523.824 303.527 524C303.063 524.16 302.543 524.24 301.967 524.24ZM302.567 522.392C303.127 522.392 303.631 522.288 304.079 522.08C304.527 521.872 304.895 521.584 305.183 521.216C305.487 520.832 305.695 520.376 305.807 519.848V517.904C305.679 517.424 305.455 517.008 305.135 516.656C304.815 516.288 304.431 516.008 303.983 515.816C303.535 515.608 303.039 515.504 302.495 515.504C301.903 515.504 301.359 515.648 300.863 515.936C300.367 516.224 299.967 516.624 299.663 517.136C299.375 517.648 299.231 518.248 299.231 518.936C299.231 519.576 299.383 520.16 299.687 520.688C299.991 521.216 300.399 521.632 300.911 521.936C301.423 522.24 301.975 522.392 302.567 522.392ZM319.965 523.088C319.517 523.44 318.981 523.72 318.357 523.928C317.733 524.136 317.109 524.24 316.485 524.24C315.397 524.24 314.445 524.024 313.629 523.592C312.813 523.16 312.173 522.56 311.709 521.792C311.261 521.008 311.037 520.088 311.037 519.032C311.037 517.976 311.277 517.056 311.757 516.272C312.253 515.488 312.893 514.888 313.677 514.472C314.477 514.04 315.333 513.824 316.245 513.824C317.045 513.824 317.757 513.936 318.381 514.16C319.021 514.384 319.565 514.688 320.013 515.072L318.909 516.512C318.621 516.288 318.269 516.088 317.853 515.912C317.437 515.736 316.965 515.648 316.437 515.648C315.861 515.648 315.325 515.8 314.829 516.104C314.349 516.392 313.965 516.792 313.677 517.304C313.405 517.816 313.269 518.392 313.269 519.032C313.269 519.64 313.413 520.208 313.701 520.736C313.989 521.248 314.389 521.656 314.901 521.96C315.413 522.248 315.997 522.392 316.653 522.392C317.085 522.392 317.477 522.328 317.829 522.2C318.197 522.072 318.525 521.896 318.813 521.672L319.965 523.088ZM323.806 509.696H326.038V514.112H328.774V515.864H326.038V524H323.806V515.864H321.982V514.112H323.806V509.696ZM332.311 528.776L338.863 514.064H340.927L334.519 528.776H332.311ZM334.759 524.072L329.983 514.064H332.503L336.511 522.944L334.759 524.072ZM343.331 505.424H345.563V524H343.331V505.424ZM352.568 524.384C351.672 524.384 350.928 524.112 350.336 523.568C349.76 523.008 349.456 522.288 349.424 521.408V514.064H351.656V520.616C351.688 521.16 351.84 521.6 352.112 521.936C352.4 522.272 352.848 522.448 353.456 522.464C354.016 522.464 354.512 522.304 354.944 521.984C355.392 521.648 355.752 521.2 356.024 520.64C356.296 520.064 356.432 519.416 356.432 518.696V514.064H358.664V524H356.624L356.432 521.552L356.552 521.984C356.36 522.448 356.064 522.864 355.664 523.232C355.28 523.584 354.824 523.864 354.296 524.072C353.768 524.28 353.192 524.384 352.568 524.384ZM365.31 524.192C364.606 524.192 363.918 524.072 363.246 523.832C362.59 523.576 362.046 523.2 361.614 522.704L362.55 521.408C362.966 521.808 363.39 522.112 363.822 522.32C364.27 522.512 364.71 522.608 365.142 522.608C365.462 522.608 365.758 522.568 366.03 522.488C366.302 522.408 366.518 522.28 366.678 522.104C366.854 521.912 366.942 521.656 366.942 521.336C366.942 520.984 366.822 520.704 366.582 520.496C366.358 520.288 366.062 520.12 365.694 519.992C365.342 519.864 364.966 519.744 364.566 519.632C363.75 519.36 363.126 518.984 362.694 518.504C362.262 518.024 362.046 517.44 362.046 516.752C362.046 516.224 362.174 515.736 362.43 515.288C362.702 514.824 363.094 514.448 363.606 514.16C364.134 513.872 364.782 513.728 365.55 513.728C366.238 513.728 366.854 513.816 367.398 513.992C367.942 514.152 368.454 514.424 368.934 514.808L368.046 516.2C367.758 515.896 367.414 515.672 367.014 515.528C366.614 515.384 366.254 515.304 365.934 515.288C365.662 515.272 365.398 515.312 365.142 515.408C364.902 515.504 364.702 515.64 364.542 515.816C364.382 515.992 364.302 516.2 364.302 516.44C364.302 516.776 364.414 517.048 364.638 517.256C364.862 517.464 365.15 517.632 365.502 517.76C365.87 517.872 366.23 517.992 366.582 518.12C367.078 518.264 367.518 518.456 367.902 518.696C368.286 518.936 368.59 519.232 368.814 519.584C369.054 519.936 369.174 520.376 369.174 520.904C369.174 521.496 369.03 522.048 368.742 522.56C368.47 523.056 368.046 523.456 367.47 523.76C366.91 524.048 366.19 524.192 365.31 524.192ZM381.885 514.064L382.077 516.296L381.981 516.104C382.349 515.352 382.869 514.76 383.541 514.328C384.229 513.896 385.013 513.68 385.893 513.68C386.453 513.68 386.949 513.768 387.381 513.944C387.813 514.12 388.165 514.376 388.437 514.712C388.725 515.032 388.909 515.432 388.989 515.912L388.869 515.984C389.253 515.264 389.781 514.704 390.453 514.304C391.141 513.888 391.861 513.68 392.613 513.68C393.589 513.68 394.357 513.96 394.917 514.52C395.493 515.064 395.789 515.776 395.805 516.656V524H393.573V517.448C393.557 516.936 393.429 516.512 393.189 516.176C392.965 515.824 392.565 515.632 391.989 515.6C391.413 515.6 390.893 515.776 390.429 516.128C389.981 516.48 389.629 516.936 389.373 517.496C389.117 518.04 388.981 518.632 388.965 519.272V524H386.733V517.448C386.717 516.936 386.581 516.512 386.325 516.176C386.085 515.824 385.677 515.632 385.101 515.6C384.509 515.6 383.989 515.776 383.541 516.128C383.093 516.48 382.741 516.936 382.485 517.496C382.245 518.056 382.125 518.656 382.125 519.296V524H379.893V514.064H381.885ZM403.826 524.24C402.898 524.24 402.05 524.04 401.282 523.64C400.53 523.24 399.93 522.656 399.482 521.888C399.05 521.104 398.834 520.152 398.834 519.032C398.834 517.928 399.066 516.976 399.53 516.176C399.994 515.36 400.61 514.736 401.378 514.304C402.162 513.872 403.018 513.656 403.946 513.656C404.874 513.656 405.658 513.872 406.298 514.304C406.938 514.72 407.426 515.216 407.762 515.792L407.618 516.176L407.834 514.064H409.898V524H407.666V521.408L407.906 521.984C407.842 522.144 407.698 522.352 407.474 522.608C407.266 522.848 406.978 523.096 406.61 523.352C406.258 523.608 405.85 523.824 405.386 524C404.922 524.16 404.402 524.24 403.826 524.24ZM404.426 522.392C404.986 522.392 405.49 522.288 405.938 522.08C406.386 521.872 406.754 521.584 407.042 521.216C407.346 520.832 407.554 520.376 407.666 519.848V517.904C407.538 517.424 407.314 517.008 406.994 516.656C406.674 516.288 406.29 516.008 405.842 515.816C405.394 515.608 404.898 515.504 404.354 515.504C403.762 515.504 403.218 515.648 402.722 515.936C402.226 516.224 401.826 516.624 401.522 517.136C401.234 517.648 401.09 518.248 401.09 518.936C401.09 519.576 401.242 520.16 401.546 520.688C401.85 521.216 402.258 521.632 402.77 521.936C403.282 522.24 403.834 522.392 404.426 522.392ZM419.808 524.24C418.896 524.24 418.088 524.04 417.384 523.64C416.696 523.24 416.144 522.736 415.728 522.128L415.992 521.432V524H413.76V505.424H415.968V516.344L415.896 515.504C416.296 514.96 416.864 514.52 417.6 514.184C418.352 513.832 419.184 513.656 420.096 513.656C420.992 513.656 421.808 513.872 422.544 514.304C423.28 514.736 423.864 515.344 424.296 516.128C424.744 516.896 424.968 517.816 424.968 518.888C424.968 520.008 424.728 520.968 424.248 521.768C423.784 522.568 423.16 523.184 422.376 523.616C421.592 524.032 420.736 524.24 419.808 524.24ZM419.352 522.344C419.992 522.344 420.568 522.192 421.08 521.888C421.592 521.584 421.992 521.176 422.28 520.664C422.568 520.136 422.712 519.536 422.712 518.864C422.712 518.224 422.56 517.648 422.256 517.136C421.968 516.608 421.568 516.192 421.056 515.888C420.56 515.584 419.992 515.432 419.352 515.432C418.808 515.432 418.304 515.536 417.84 515.744C417.376 515.952 416.984 516.24 416.664 516.608C416.344 516.96 416.12 517.376 415.992 517.856V519.848C416.12 520.328 416.336 520.76 416.64 521.144C416.944 521.512 417.328 521.808 417.792 522.032C418.256 522.24 418.776 522.344 419.352 522.344ZM427.123 518.936C427.123 517.944 427.355 517.048 427.819 516.248C428.299 515.448 428.955 514.816 429.787 514.352C430.619 513.888 431.563 513.656 432.619 513.656C433.707 513.656 434.659 513.888 435.475 514.352C436.291 514.816 436.923 515.448 437.371 516.248C437.819 517.048 438.043 517.944 438.043 518.936C438.043 519.928 437.819 520.832 437.371 521.648C436.923 522.448 436.283 523.08 435.451 523.544C434.635 524.008 433.683 524.24 432.595 524.24C431.539 524.24 430.595 524.024 429.763 523.592C428.947 523.144 428.299 522.528 427.819 521.744C427.355 520.944 427.123 520.008 427.123 518.936ZM429.355 518.96C429.355 519.6 429.499 520.184 429.787 520.712C430.075 521.224 430.459 521.632 430.939 521.936C431.435 522.24 431.979 522.392 432.571 522.392C433.195 522.392 433.747 522.24 434.227 521.936C434.723 521.632 435.107 521.224 435.379 520.712C435.651 520.184 435.787 519.6 435.787 518.96C435.787 518.32 435.651 517.744 435.379 517.232C435.107 516.704 434.723 516.288 434.227 515.984C433.747 515.664 433.195 515.504 432.571 515.504C431.963 515.504 431.411 515.664 430.915 515.984C430.435 516.304 430.051 516.728 429.763 517.256C429.491 517.768 429.355 518.336 429.355 518.96ZM444.209 524.384C443.313 524.384 442.569 524.112 441.977 523.568C441.401 523.008 441.097 522.288 441.065 521.408V514.064H443.297V520.616C443.329 521.16 443.481 521.6 443.753 521.936C444.041 522.272 444.489 522.448 445.097 522.464C445.657 522.464 446.153 522.304 446.585 521.984C447.033 521.648 447.393 521.2 447.665 520.64C447.937 520.064 448.073 519.416 448.073 518.696V514.064H450.305V524H448.265L448.073 521.552L448.193 521.984C448.001 522.448 447.705 522.864 447.305 523.232C446.921 523.584 446.465 523.864 445.937 524.072C445.409 524.28 444.833 524.384 444.209 524.384ZM454.167 514.064H456.399V524H454.167V514.064ZM453.999 510.464C453.999 510.112 454.135 509.816 454.407 509.576C454.695 509.336 455.007 509.216 455.343 509.216C455.679 509.216 455.975 509.336 456.231 509.576C456.503 509.816 456.639 510.112 456.639 510.464C456.639 510.832 456.503 511.136 456.231 511.376C455.975 511.6 455.679 511.712 455.343 511.712C455.007 511.712 454.695 511.592 454.407 511.352C454.135 511.112 453.999 510.816 453.999 510.464ZM464.388 524.24C463.46 524.24 462.612 524.04 461.844 523.64C461.092 523.24 460.492 522.656 460.044 521.888C459.612 521.104 459.396 520.152 459.396 519.032C459.396 517.928 459.628 516.976 460.092 516.176C460.556 515.36 461.172 514.736 461.94 514.304C462.724 513.872 463.58 513.656 464.508 513.656C465.436 513.656 466.22 513.872 466.86 514.304C467.5 514.72 467.988 515.216 468.324 515.792L468.18 516.176L468.396 514.064H470.46V524H468.228V521.408L468.468 521.984C468.404 522.144 468.26 522.352 468.036 522.608C467.828 522.848 467.54 523.096 467.172 523.352C466.82 523.608 466.412 523.824 465.948 524C465.484 524.16 464.964 524.24 464.388 524.24ZM464.988 522.392C465.548 522.392 466.052 522.288 466.5 522.08C466.948 521.872 467.316 521.584 467.604 521.216C467.908 520.832 468.116 520.376 468.228 519.848V517.904C468.1 517.424 467.876 517.008 467.556 516.656C467.236 516.288 466.852 516.008 466.404 515.816C465.956 515.608 465.46 515.504 464.916 515.504C464.324 515.504 463.78 515.648 463.284 515.936C462.788 516.224 462.388 516.624 462.084 517.136C461.796 517.648 461.652 518.248 461.652 518.936C461.652 519.576 461.804 520.16 462.108 520.688C462.412 521.216 462.82 521.632 463.332 521.936C463.844 522.24 464.396 522.392 464.988 522.392ZM479.891 516.944C479.891 518.56 479.691 520.072 479.291 521.48C478.907 522.888 478.411 524.144 477.803 525.248C477.211 526.352 476.571 527.264 475.883 527.984L474.131 526.976C474.755 526.272 475.323 525.424 475.835 524.432C476.363 523.44 476.779 522.32 477.083 521.072C477.403 519.808 477.563 518.432 477.563 516.944C477.563 515.456 477.403 514.08 477.083 512.816C476.779 511.552 476.363 510.424 475.835 509.432C475.323 508.44 474.755 507.592 474.131 506.888L475.883 505.88C476.571 506.6 477.211 507.52 477.803 508.64C478.411 509.744 478.907 511 479.291 512.408C479.691 513.8 479.891 515.312 479.891 516.944Z" fill="black"/>
<rect x="37.744" y="40.0093" width="619.945" height="395.685" stroke="#5D1C0F" stroke-width="3"/>
</svg>
