<svg width="87" height="48" viewBox="0 0 87 48" fill="none" xmlns="http://www.w3.org/2000/svg">
<path d="M15.3499 15.856C15.3499 17.264 15.0779 18.464 14.5339 19.456C14.0059 20.448 13.2779 21.2 12.3499 21.712C11.4219 22.24 10.3579 22.528 9.15794 22.576V20.32C10.2779 20.256 11.1979 19.856 11.9179 19.12C12.6539 18.4 13.0219 17.288 13.0219 15.784V1.648H15.3499V15.856ZM23.9236 19.24C22.9956 19.24 22.1476 19.04 21.3796 18.64C20.6276 18.24 20.0276 17.656 19.5796 16.888C19.1476 16.104 18.9316 15.152 18.9316 14.032C18.9316 12.928 19.1636 11.976 19.6276 11.176C20.0916 10.36 20.7076 9.736 21.4756 9.304C22.2596 8.872 23.1156 8.656 24.0436 8.656C24.9716 8.656 25.7556 8.872 26.3956 9.304C27.0356 9.72 27.5236 10.216 27.8596 10.792L27.7156 11.176L27.9316 9.064H29.9956V19H27.7636V16.408L28.0036 16.984C27.9396 17.144 27.7956 17.352 27.5716 17.608C27.3636 17.848 27.0756 18.096 26.7076 18.352C26.3556 18.608 25.9476 18.824 25.4836 19C25.0196 19.16 24.4996 19.24 23.9236 19.24ZM24.5236 17.392C25.0836 17.392 25.5876 17.288 26.0356 17.08C26.4836 16.872 26.8516 16.584 27.1396 16.216C27.4436 15.832 27.6516 15.376 27.7636 14.848V12.904C27.6356 12.424 27.4116 12.008 27.0916 11.656C26.7716 11.288 26.3876 11.008 25.9396 10.816C25.4916 10.608 24.9956 10.504 24.4516 10.504C23.8596 10.504 23.3156 10.648 22.8196 10.936C22.3236 11.224 21.9236 11.624 21.6196 12.136C21.3316 12.648 21.1876 13.248 21.1876 13.936C21.1876 14.576 21.3396 15.16 21.6436 15.688C21.9476 16.216 22.3556 16.632 22.8676 16.936C23.3796 17.24 23.9316 17.392 24.5236 17.392ZM37.8901 19.288L32.3701 9.064H35.0101L38.7541 16.96L37.3861 16.912L40.8181 9.064H43.3141L38.0101 19.288H37.8901ZM49.447 19.24C48.519 19.24 47.671 19.04 46.903 18.64C46.151 18.24 45.551 17.656 45.103 16.888C44.671 16.104 44.455 15.152 44.455 14.032C44.455 12.928 44.687 11.976 45.151 11.176C45.615 10.36 46.231 9.736 46.999 9.304C47.783 8.872 48.639 8.656 49.567 8.656C50.495 8.656 51.279 8.872 51.919 9.304C52.559 9.72 53.047 10.216 53.383 10.792L53.239 11.176L53.455 9.064H55.519V19H53.287V16.408L53.527 16.984C53.463 17.144 53.319 17.352 53.095 17.608C52.887 17.848 52.599 18.096 52.231 18.352C51.879 18.608 51.471 18.824 51.007 19C50.543 19.16 50.023 19.24 49.447 19.24ZM50.047 17.392C50.607 17.392 51.111 17.288 51.559 17.08C52.007 16.872 52.375 16.584 52.663 16.216C52.967 15.832 53.175 15.376 53.287 14.848V12.904C53.159 12.424 52.935 12.008 52.615 11.656C52.295 11.288 51.911 11.008 51.463 10.816C51.015 10.608 50.519 10.504 49.975 10.504C49.383 10.504 48.839 10.648 48.343 10.936C47.847 11.224 47.447 11.624 47.143 12.136C46.855 12.648 46.711 13.248 46.711 13.936C46.711 14.576 46.863 15.16 47.167 15.688C47.471 16.216 47.879 16.632 48.391 16.936C48.903 17.24 49.455 17.392 50.047 17.392ZM59.3815 0.423999H61.6135V19H59.3815V0.423999ZM65.4753 9.064H67.7073V19H65.4753V9.064ZM65.3073 5.464C65.3073 5.112 65.4433 4.816 65.7153 4.576C66.0033 4.336 66.3153 4.216 66.6513 4.216C66.9873 4.216 67.2833 4.336 67.5393 4.576C67.8113 4.816 67.9473 5.112 67.9473 5.464C67.9473 5.832 67.8113 6.136 67.5393 6.376C67.2833 6.6 66.9873 6.712 66.6513 6.712C66.3153 6.712 66.0033 6.592 65.7153 6.352C65.4433 6.112 65.3073 5.816 65.3073 5.464ZM70.897 12.856H75.385V14.824H70.897V12.856ZM0.378813 25.648H11.6588V27.88H2.70681V33.16H10.6988V35.392H2.70681V40.768H11.9948V43H0.378813V25.648ZM18.6271 43.384C17.7311 43.384 16.9871 43.112 16.3951 42.568C15.8191 42.008 15.5151 41.288 15.4831 40.408V33.064H17.7151V39.616C17.7471 40.16 17.8991 40.6 18.1711 40.936C18.4591 41.272 18.9071 41.448 19.5151 41.464C20.0751 41.464 20.5711 41.304 21.0031 40.984C21.4511 40.648 21.8111 40.2 22.0831 39.64C22.3551 39.064 22.4911 38.416 22.4911 37.696V33.064H24.7231V43H22.6831L22.4911 40.552L22.6111 40.984C22.4191 41.448 22.1231 41.864 21.7231 42.232C21.3391 42.584 20.8831 42.864 20.3551 43.072C19.8271 43.28 19.2511 43.384 18.6271 43.384ZM30.5766 33.064L30.7926 35.944L30.6726 35.56C30.9286 34.952 31.2966 34.44 31.7766 34.024C32.2726 33.592 32.7846 33.264 33.3126 33.04C33.8566 32.8 34.3286 32.68 34.7286 32.68L34.6086 34.888C33.8566 34.84 33.1926 34.984 32.6166 35.32C32.0566 35.656 31.6086 36.104 31.2726 36.664C30.9526 37.224 30.7926 37.824 30.7926 38.464V43H28.5846V33.064H30.5766ZM36.3222 37.936C36.3222 36.944 36.5542 36.048 37.0182 35.248C37.4982 34.448 38.1542 33.816 38.9862 33.352C39.8182 32.888 40.7622 32.656 41.8182 32.656C42.9062 32.656 43.8582 32.888 44.6742 33.352C45.4902 33.816 46.1222 34.448 46.5702 35.248C47.0182 36.048 47.2422 36.944 47.2422 37.936C47.2422 38.928 47.0182 39.832 46.5702 40.648C46.1222 41.448 45.4822 42.08 44.6502 42.544C43.8342 43.008 42.8822 43.24 41.7942 43.24C40.7382 43.24 39.7942 43.024 38.9622 42.592C38.1462 42.144 37.4982 41.528 37.0182 40.744C36.5542 39.944 36.3222 39.008 36.3222 37.936ZM38.5542 37.96C38.5542 38.6 38.6982 39.184 38.9862 39.712C39.2742 40.224 39.6582 40.632 40.1382 40.936C40.6342 41.24 41.1782 41.392 41.7702 41.392C42.3942 41.392 42.9462 41.24 43.4262 40.936C43.9222 40.632 44.3062 40.224 44.5782 39.712C44.8502 39.184 44.9862 38.6 44.9862 37.96C44.9862 37.32 44.8502 36.744 44.5782 36.232C44.3062 35.704 43.9222 35.288 43.4262 34.984C42.9462 34.664 42.3942 34.504 41.7702 34.504C41.1622 34.504 40.6102 34.664 40.1142 34.984C39.6342 35.304 39.2502 35.728 38.9622 36.256C38.6902 36.768 38.5542 37.336 38.5542 37.96ZM56.1203 43.24C55.3683 43.24 54.6403 43.064 53.9363 42.712C53.2483 42.36 52.7123 41.888 52.3283 41.296L52.4723 40.6V47.776H50.2643V32.92H52.1843L52.4963 35.464L52.2563 34.768C52.7363 34.16 53.3443 33.656 54.0803 33.256C54.8163 32.856 55.6403 32.656 56.5523 32.656C57.4803 32.656 58.3123 32.88 59.0483 33.328C59.8003 33.776 60.3923 34.4 60.8243 35.2C61.2563 36 61.4723 36.936 61.4723 38.008C61.4723 39.08 61.2403 40.008 60.7763 40.792C60.3123 41.576 59.6723 42.184 58.8563 42.616C58.0563 43.032 57.1443 43.24 56.1203 43.24ZM55.6883 41.464C56.3283 41.464 56.9123 41.32 57.4403 41.032C57.9843 40.728 58.4163 40.32 58.7363 39.808C59.0563 39.28 59.2163 38.688 59.2163 38.032C59.2163 37.36 59.0643 36.768 58.7603 36.256C58.4563 35.728 58.0483 35.312 57.5363 35.008C57.0403 34.704 56.4803 34.552 55.8563 34.552C55.2803 34.552 54.7603 34.664 54.2963 34.888C53.8323 35.112 53.4483 35.424 53.1443 35.824C52.8403 36.208 52.6243 36.656 52.4963 37.168V38.824C52.5763 39.336 52.7683 39.792 53.0723 40.192C53.3763 40.592 53.7523 40.904 54.2003 41.128C54.6643 41.352 55.1603 41.464 55.6883 41.464ZM69.0989 43.24C67.9629 43.24 66.9869 43.016 66.1709 42.568C65.3549 42.104 64.7229 41.48 64.2749 40.696C63.8429 39.896 63.6269 38.984 63.6269 37.96C63.6269 36.984 63.8749 36.096 64.3709 35.296C64.8669 34.496 65.5309 33.856 66.3629 33.376C67.1949 32.896 68.1229 32.656 69.1469 32.656C70.4589 32.656 71.5469 33.04 72.4109 33.808C73.2749 34.576 73.8589 35.632 74.1629 36.976L65.9789 39.856L65.4509 38.536L72.1709 36.088L71.6909 36.4C71.4989 35.872 71.1789 35.416 70.7309 35.032C70.2829 34.632 69.6989 34.432 68.9789 34.432C68.3709 34.432 67.8269 34.584 67.3469 34.888C66.8669 35.176 66.4909 35.576 66.2189 36.088C65.9469 36.6 65.8109 37.184 65.8109 37.84C65.8109 38.528 65.9549 39.136 66.2429 39.664C66.5309 40.176 66.9229 40.584 67.4189 40.888C67.9309 41.176 68.5069 41.32 69.1469 41.32C69.5789 41.32 69.9949 41.24 70.3949 41.08C70.8109 40.92 71.1949 40.712 71.5469 40.456L72.5789 42.112C72.0829 42.448 71.5229 42.72 70.8989 42.928C70.2909 43.136 69.6909 43.24 69.0989 43.24ZM80.1036 43.384C79.2076 43.384 78.4636 43.112 77.8716 42.568C77.2956 42.008 76.9916 41.288 76.9596 40.408V33.064H79.1916V39.616C79.2236 40.16 79.3756 40.6 79.6476 40.936C79.9356 41.272 80.3836 41.448 80.9916 41.464C81.5516 41.464 82.0476 41.304 82.4796 40.984C82.9276 40.648 83.2876 40.2 83.5596 39.64C83.8316 39.064 83.9676 38.416 83.9676 37.696V33.064H86.1996V43H84.1596L83.9676 40.552L84.0876 40.984C83.8956 41.448 83.5996 41.864 83.1996 42.232C82.8156 42.584 82.3596 42.864 81.8316 43.072C81.3036 43.28 80.7276 43.384 80.1036 43.384Z" fill="black"/>
</svg>
